<svg xmlns="http://www.w3.org/2000/svg" xmlns:xlink="http://www.w3.org/1999/xlink" contentStyleType="text/css" data-diagram-type="CLASS" height="2960px" preserveAspectRatio="none" style="width:916px;height:2960px;background:#282828;" version="1.1" viewBox="0 0 916 2960" width="916px" zoomAndPan="magnify"><title>Paquete CONSOLA &#8212; UIs de l&#237;nea de comandos (Modelo de dominio)</title><defs/><g><rect fill="#282828" height="2960" style="stroke:none;stroke-width:1;" width="916" x="0" y="0"/><g class="title" data-source-line="4"><text fill="#FFB000" font-family="Verdana" font-size="22" font-weight="bold" lengthAdjust="spacing" textLength="847.4727" x="33" y="53.4209">Paquete CONSOLA &#8212; UIs de l&#237;nea de comandos (Modelo de dominio)</text></g><!--cluster consola--><g class="cluster" data-entity="consola" data-source-line="14" data-uid="ent0002" id="cluster_consola"><rect fill="#282828" height="2860" rx="2.5" ry="2.5" style="stroke:#FFB000;stroke-width:1;" width="491.23" x="56.6963" y="94.6094"/><text fill="#FFB000" font-family="Verdana" font-size="14" font-weight="bold" lengthAdjust="spacing" textLength="60.0811" x="272.2708" y="127.6045">consola</text></g><!--cluster logica--><g class="cluster" data-entity="logica" data-source-line="67" data-uid="ent0008" id="cluster_logica"><rect fill="#282828" height="165" rx="2.5" ry="2.5" style="stroke:#FFB000;stroke-width:1;" width="195.85" x="675.9263" y="1690.6094"/><text fill="#FFB000" font-family="Verdana" font-size="14" font-weight="bold" lengthAdjust="spacing" textLength="46.9834" x="750.3596" y="1723.6045">logica</text></g><!--class ConsolaPrincipal--><g class="entity" data-entity="ConsolaPrincipal" data-source-line="15" data-uid="ent0003" id="entity_ConsolaPrincipal"><a href="java:consola.ConsolaPrincipal" target="_top" title="java:consola.ConsolaPrincipal" xlink:actuate="onRequest" xlink:href="java:consola.ConsolaPrincipal" xlink:show="new" xlink:title="java:consola.ConsolaPrincipal" xlink:type="simple"><rect fill="#282828" height="339.7813" rx="2.5" ry="2.5" style="stroke:#FFB000;stroke-width:1;" width="236.8154" x="183.9063" y="2598.7194"/><ellipse cx="222.8414" cy="2629.8678" fill="#FFB000" rx="9" ry="9" style="stroke:#FFB000;stroke-width:1;"/><path d="M225.8101,2635.5084 Q225.232,2635.8053 224.5914,2635.9459 Q223.9508,2636.1022 223.2476,2636.1022 Q220.7476,2636.1022 219.4195,2634.4616 Q218.107,2632.8053 218.107,2629.6803 Q218.107,2626.5553 219.4195,2624.8991 Q220.7476,2623.2428 223.2476,2623.2428 Q223.9508,2623.2428 224.5914,2623.3991 Q225.2476,2623.5553 225.8101,2623.8522 L225.8101,2626.5709 Q225.1851,2625.9928 224.5914,2625.7272 Q223.9976,2625.4459 223.3726,2625.4459 Q222.0289,2625.4459 221.3414,2626.5241 Q220.6539,2627.5866 220.6539,2629.6803 Q220.6539,2631.7741 221.3414,2632.8522 Q222.0289,2633.9147 223.3726,2633.9147 Q223.9976,2633.9147 224.5914,2633.6491 Q225.1851,2633.3678 225.8101,2632.7897 L225.8101,2635.5084 Z " fill="#FFB000"/><text fill="#FFB000" font-family="Verdana" font-size="14" lengthAdjust="spacing" textLength="115.4453" x="258.3414" y="2634.7145">ConsolaPrincipal</text><line style="stroke:#FFB000;stroke-width:1;" x1="184.9063" x2="419.7218" y1="2661.0163" y2="2661.0163"/><line style="stroke:#FFB000;stroke-width:1;" x1="184.9063" x2="419.7218" y1="2669.0163" y2="2669.0163"/><text fill="#FFB000" font-family="Verdana" font-size="14" lengthAdjust="spacing" textLength="138.0996" x="207.9063" y="2704.0114">+ConsolaPrincipal()</text><text fill="#FFB000" font-family="Verdana" font-size="14" lengthAdjust="spacing" textLength="104.0225" x="207.9063" y="2756.3082">+iniciar(): void</text><text fill="#FFB000" font-family="Verdana" font-size="14" lengthAdjust="spacing" textLength="143.4658" x="207.9063" y="2808.6051">-iniciarSesion(): void</text><text fill="#FFB000" font-family="Verdana" font-size="14" lengthAdjust="spacing" textLength="167.9932" x="207.9063" y="2860.902">-registrarUsuario(): void</text><text fill="#FFB000" font-family="Verdana" font-size="14" lengthAdjust="spacing" text-decoration="underline" textLength="188.8154" x="207.9063" y="2913.1989">+main(args: String[]): void</text></a></g><!--class ConsolaAdministrador--><g class="entity" data-entity="ConsolaAdministrador" data-source-line="23" data-uid="ent0004" id="entity_ConsolaAdministrador"><a href="java:consola.ConsolaAdministrador" target="_top" title="java:consola.ConsolaAdministrador" xlink:actuate="onRequest" xlink:href="java:consola.ConsolaAdministrador" xlink:show="new" xlink:title="java:consola.ConsolaAdministrador" xlink:type="simple"><rect fill="#282828" height="496.6719" rx="2.5" ry="2.5" style="stroke:#FFB000;stroke-width:1;" width="435.0439" x="84.7863" y="1962.2694"/><ellipse cx="203.2473" cy="1993.4178" fill="#FFB000" rx="9" ry="9" style="stroke:#FFB000;stroke-width:1;"/><path d="M206.216,1999.0584 Q205.6379,1999.3553 204.9973,1999.4959 Q204.3566,1999.6522 203.6535,1999.6522 Q201.1535,1999.6522 199.8254,1998.0116 Q198.5129,1996.3553 198.5129,1993.2303 Q198.5129,1990.1053 199.8254,1988.4491 Q201.1535,1986.7928 203.6535,1986.7928 Q204.3566,1986.7928 204.9973,1986.9491 Q205.6535,1987.1053 206.216,1987.4022 L206.216,1990.1209 Q205.591,1989.5428 204.9973,1989.2772 Q204.4035,1988.9959 203.7785,1988.9959 Q202.4348,1988.9959 201.7473,1990.0741 Q201.0598,1991.1366 201.0598,1993.2303 Q201.0598,1995.3241 201.7473,1996.4022 Q202.4348,1997.4647 203.7785,1997.4647 Q204.4035,1997.4647 204.9973,1997.1991 Q205.591,1996.9178 206.216,1996.3397 L206.216,1999.0584 Z " fill="#FFB000"/><text fill="#FFB000" font-family="Verdana" font-size="14" lengthAdjust="spacing" textLength="154.6221" x="238.7473" y="1998.2645">ConsolaAdministrador</text><line style="stroke:#FFB000;stroke-width:1;" x1="85.7863" x2="518.8303" y1="2024.5662" y2="2024.5662"/><line style="stroke:#FFB000;stroke-width:1;" x1="85.7863" x2="518.8303" y1="2032.5662" y2="2032.5662"/><text fill="#FFB000" font-family="Verdana" font-size="14" lengthAdjust="spacing" textLength="387.0439" x="108.7863" y="2067.5614">+ConsolaAdministrador(sistema: logica.BoletasMaster)</text><text fill="#FFB000" font-family="Verdana" font-size="14" lengthAdjust="spacing" textLength="118.959" x="108.7863" y="2119.8582">+ejecutar(): void</text><text fill="#FFB000" font-family="Verdana" font-size="14" lengthAdjust="spacing" textLength="230.9863" x="108.7863" y="2172.1551">-verSolicitudesPendientes(): void</text><text fill="#FFB000" font-family="Verdana" font-size="14" lengthAdjust="spacing" textLength="169.6475" x="108.7863" y="2224.452">-atenderSolicitud(): void</text><text fill="#FFB000" font-family="Verdana" font-size="14" lengthAdjust="spacing" textLength="221.7168" x="108.7863" y="2276.7489">-verGananciasGenerales(): void</text><text fill="#FFB000" font-family="Verdana" font-size="14" lengthAdjust="spacing" textLength="222.0723" x="108.7863" y="2329.0457">-verGananciasPorEvento(): void</text><text fill="#FFB000" font-family="Verdana" font-size="14" lengthAdjust="spacing" textLength="259.54" x="108.7863" y="2381.3426">-verGananciasPorOrganizador(): void</text><text fill="#FFB000" font-family="Verdana" font-size="14" lengthAdjust="spacing" textLength="116.4092" x="108.7863" y="2433.6395">-leerEntero(): int</text></a></g><!--class ConsolaCliente--><g class="entity" data-entity="ConsolaCliente" data-source-line="34" data-uid="ent0005" id="entity_ConsolaCliente"><a href="java:consola.ConsolaCliente" target="_top" title="java:consola.ConsolaCliente" xlink:actuate="onRequest" xlink:href="java:consola.ConsolaCliente" xlink:show="new" xlink:title="java:consola.ConsolaCliente" xlink:type="simple"><rect fill="#282828" height="862.75" rx="2.5" ry="2.5" style="stroke:#FFB000;stroke-width:1;" width="385.1074" x="109.7563" y="959.2294"/><ellipse cx="228.2173" cy="990.3778" fill="#FFB000" rx="9" ry="9" style="stroke:#FFB000;stroke-width:1;"/><path d="M231.186,996.0184 Q230.6079,996.3153 229.9673,996.4559 Q229.3266,996.6122 228.6235,996.6122 Q226.1235,996.6122 224.7954,994.9716 Q223.4829,993.3153 223.4829,990.1903 Q223.4829,987.0653 224.7954,985.4091 Q226.1235,983.7528 228.6235,983.7528 Q229.3266,983.7528 229.9673,983.9091 Q230.6235,984.0653 231.186,984.3622 L231.186,987.0809 Q230.561,986.5028 229.9673,986.2372 Q229.3735,985.9559 228.7485,985.9559 Q227.4048,985.9559 226.7173,987.0341 Q226.0298,988.0966 226.0298,990.1903 Q226.0298,992.2841 226.7173,993.3622 Q227.4048,994.4247 228.7485,994.4247 Q229.3735,994.4247 229.9673,994.1591 Q230.561,993.8778 231.186,993.2997 L231.186,996.0184 Z " fill="#FFB000"/><text fill="#FFB000" font-family="Verdana" font-size="14" lengthAdjust="spacing" textLength="104.6855" x="263.7173" y="995.2245">ConsolaCliente</text><line style="stroke:#FFB000;stroke-width:1;" x1="110.7563" x2="493.8638" y1="1021.5262" y2="1021.5262"/><line style="stroke:#FFB000;stroke-width:1;" x1="110.7563" x2="493.8638" y1="1029.5263" y2="1029.5263"/><text fill="#FFB000" font-family="Verdana" font-size="14" lengthAdjust="spacing" textLength="337.1074" x="133.7563" y="1064.5214">+ConsolaCliente(sistema: logica.BoletasMaster)</text><text fill="#FFB000" font-family="Verdana" font-size="14" lengthAdjust="spacing" textLength="206.541" x="133.7563" y="1116.8182">+ejecutarMenuCliente(): void</text><text fill="#FFB000" font-family="Verdana" font-size="14" lengthAdjust="spacing" textLength="165.8125" x="133.7563" y="1169.1151">-mostrarEventos(): void</text><text fill="#FFB000" font-family="Verdana" font-size="14" lengthAdjust="spacing" textLength="166.5645" x="133.7563" y="1221.412">-comprarTiquete(): void</text><text fill="#FFB000" font-family="Verdana" font-size="14" lengthAdjust="spacing" textLength="247.1943" x="133.7563" y="1273.7089">-comprarTiqueteEnumerado(): void</text><text fill="#FFB000" font-family="Verdana" font-size="14" lengthAdjust="spacing" textLength="220.1992" x="133.7563" y="1326.0057">-comprarPaqueteDeluxe(): void</text><text fill="#FFB000" font-family="Verdana" font-size="14" lengthAdjust="spacing" textLength="222.1748" x="133.7563" y="1378.3026">-comprarTiqueteMultiple(): void</text><text fill="#FFB000" font-family="Verdana" font-size="14" lengthAdjust="spacing" textLength="187.6123" x="133.7563" y="1430.5995">-solicitarReembolso(): void</text><text fill="#FFB000" font-family="Verdana" font-size="14" lengthAdjust="spacing" textLength="155.6133" x="133.7563" y="1482.8964">-publicarOferta(): void</text><text fill="#FFB000" font-family="Verdana" font-size="14" lengthAdjust="spacing" textLength="215.3936" x="133.7563" y="1535.1932">-verOfertasMarketplace(): void</text><text fill="#FFB000" font-family="Verdana" font-size="14" lengthAdjust="spacing" textLength="185.7119" x="133.7563" y="1587.4901">-hacerContraOferta(): void</text><text fill="#FFB000" font-family="Verdana" font-size="14" lengthAdjust="spacing" textLength="242.6963" x="133.7563" y="1639.787">-gestionarMisContraOfertas(): void</text><text fill="#FFB000" font-family="Verdana" font-size="14" lengthAdjust="spacing" textLength="172.252" x="133.7563" y="1692.0839">-eliminarMiOferta(): void</text><text fill="#FFB000" font-family="Verdana" font-size="14" lengthAdjust="spacing" textLength="116.4092" x="133.7563" y="1744.3807">-leerEntero(): int</text><text fill="#FFB000" font-family="Verdana" font-size="14" lengthAdjust="spacing" textLength="149.3379" x="133.7563" y="1796.6776">-leerDouble(): double</text></a></g><!--class ConsolaOrganizador--><g class="entity" data-entity="ConsolaOrganizador" data-source-line="52" data-uid="ent0006" id="entity_ConsolaOrganizador"><a href="java:consola.ConsolaOrganizador" target="_top" title="java:consola.ConsolaOrganizador" xlink:actuate="onRequest" xlink:href="java:consola.ConsolaOrganizador" xlink:show="new" xlink:title="java:consola.ConsolaOrganizador" xlink:type="simple"><rect fill="#282828" height="653.5625" rx="2.5" ry="2.5" style="stroke:#FFB000;stroke-width:1;" width="459.2295" x="72.6963" y="165.8294"/><ellipse cx="209.7203" cy="196.9778" fill="#FFB000" rx="9" ry="9" style="stroke:#FFB000;stroke-width:1;"/><path d="M212.689,202.6184 Q212.1109,202.9153 211.4703,203.0559 Q210.8296,203.2122 210.1265,203.2122 Q207.6265,203.2122 206.2984,201.5716 Q204.9859,199.9153 204.9859,196.7903 Q204.9859,193.6653 206.2984,192.0091 Q207.6265,190.3528 210.1265,190.3528 Q210.8296,190.3528 211.4703,190.5091 Q212.1265,190.6653 212.689,190.9622 L212.689,193.6809 Q212.064,193.1028 211.4703,192.8372 Q210.8765,192.5559 210.2515,192.5559 Q208.9078,192.5559 208.2203,193.6341 Q207.5328,194.6966 207.5328,196.7903 Q207.5328,198.8841 208.2203,199.9622 Q208.9078,201.0247 210.2515,201.0247 Q210.8765,201.0247 211.4703,200.7591 Q212.064,200.4778 212.689,199.8997 L212.689,202.6184 Z " fill="#FFB000"/><text fill="#FFB000" font-family="Verdana" font-size="14" lengthAdjust="spacing" textLength="141.6816" x="245.2203" y="201.8245">ConsolaOrganizador</text><line style="stroke:#FFB000;stroke-width:1;" x1="73.6963" x2="530.9258" y1="228.1262" y2="228.1262"/><line style="stroke:#FFB000;stroke-width:1;" x1="73.6963" x2="530.9258" y1="236.1262" y2="236.1262"/><text fill="#FFB000" font-family="Verdana" font-size="14" lengthAdjust="spacing" textLength="374.1035" x="96.6963" y="271.1214">+ConsolaOrganizador(sistema: logica.BoletasMaster)</text><text fill="#FFB000" font-family="Verdana" font-size="14" lengthAdjust="spacing" textLength="154.9639" x="96.6963" y="323.4182">+mostrarMenu(): void</text><text fill="#FFB000" font-family="Verdana" font-size="14" lengthAdjust="spacing" textLength="139.8428" x="96.6963" y="375.7151">-crearEvento(): void</text><text fill="#FFB000" font-family="Verdana" font-size="14" lengthAdjust="spacing" textLength="157.9443" x="96.6963" y="428.012">-crearLocalidad(): void</text><text fill="#FFB000" font-family="Verdana" font-size="14" lengthAdjust="spacing" textLength="163.2217" x="96.6963" y="480.3089">-proponerVenue(): void</text><text fill="#FFB000" font-family="Verdana" font-size="14" lengthAdjust="spacing" textLength="194.8516" x="96.6963" y="532.6057">-solicitarCancelacion(): void</text><text fill="#FFB000" font-family="Verdana" font-size="14" lengthAdjust="spacing" textLength="156.6523" x="96.6963" y="584.9026">-verMisEventos(): void</text><text fill="#FFB000" font-family="Verdana" font-size="14" lengthAdjust="spacing" textLength="150.6367" x="96.6963" y="637.1995">-verGanancias(): void</text><text fill="#FFB000" font-family="Verdana" font-size="14" lengthAdjust="spacing" textLength="411.2295" x="96.6963" y="689.4964">-mostrarEventos(eventos: ArrayList&lt;logica.Evento&gt;): void</text><text fill="#FFB000" font-family="Verdana" font-size="14" lengthAdjust="spacing" textLength="116.4092" x="96.6963" y="741.7932">-leerEntero(): int</text><text fill="#FFB000" font-family="Verdana" font-size="14" lengthAdjust="spacing" textLength="149.3379" x="96.6963" y="794.0901">-leerDouble(): double</text></a></g><!--class BoletasMaster--><g class="entity" data-entity="BoletasMaster" data-source-line="67" data-uid="ent0007" id="entity_BoletasMaster"><rect fill="#282828" height="78.2969" rx="2.5" ry="2.5" style="stroke:#FFB000;stroke-width:1;" width="163.8457" x="691.9263" y="1761.4594"/><ellipse cx="704.9263" cy="1792.6078" fill="#FFB000" rx="9" ry="9" style="stroke:#FFB000;stroke-width:1;"/><path d="M707.8951,1798.2484 Q707.317,1798.5453 706.6763,1798.6859 Q706.0357,1798.8422 705.3326,1798.8422 Q702.8326,1798.8422 701.5045,1797.2016 Q700.192,1795.5453 700.192,1792.4203 Q700.192,1789.2953 701.5045,1787.6391 Q702.8326,1785.9828 705.3326,1785.9828 Q706.0357,1785.9828 706.6763,1786.1391 Q707.3326,1786.2953 707.8951,1786.5922 L707.8951,1789.3109 Q707.2701,1788.7328 706.6763,1788.4672 Q706.0826,1788.1859 705.4576,1788.1859 Q704.1138,1788.1859 703.4263,1789.2641 Q702.7388,1790.3266 702.7388,1792.4203 Q702.7388,1794.5141 703.4263,1795.5922 Q704.1138,1796.6547 705.4576,1796.6547 Q706.0826,1796.6547 706.6763,1796.3891 Q707.2701,1796.1078 707.8951,1795.5297 L707.8951,1798.2484 Z " fill="#FFB000"/><text fill="#FFB000" font-family="Verdana" font-size="14" lengthAdjust="spacing" textLength="99.8457" x="734.9263" y="1797.4545">BoletasMaster</text><line style="stroke:#FFB000;stroke-width:1;" x1="692.9263" x2="854.772" y1="1823.7563" y2="1823.7563"/><line style="stroke:#FFB000;stroke-width:1;" x1="692.9263" x2="854.772" y1="1831.7563" y2="1831.7563"/></g><!--link ConsolaPrincipal to BoletasMaster--><g class="link" data-entity-1="ConsolaPrincipal" data-entity-2="BoletasMaster" data-source-line="67" data-uid="lnk9" id="link_ConsolaPrincipal_BoletasMaster"><path codeLine="67" d="M420.9263,2768.6094 C560.8763,2768.6094 774.7763,2768.6094 774.7763,2768.6094 C774.7763,2768.6094 774.7763,2027.6794 774.7763,1846.0594" fill="none" id="ConsolaPrincipal-to-BoletasMaster" style="stroke:#FFB000;stroke-width:1;"/><polygon fill="#FFB000" points="774.7763,1840.0594,770.7763,1849.0594,774.7763,1845.0594,778.7763,1849.0594,774.7763,1840.0594" style="stroke:#FFB000;stroke-width:1;"/><text fill="#FFB000" font-family="Verdana" font-size="13" lengthAdjust="spacing" textLength="50.8828" x="705.7763" y="2512.3263">sistema</text><text fill="#FFB000" font-family="Verdana" font-size="13" lengthAdjust="spacing" textLength="8.271" x="746.3554" y="1877.644">1</text></g><!--link ConsolaAdministrador to BoletasMaster--><g class="link" data-entity-1="ConsolaAdministrador" data-entity-2="BoletasMaster" data-source-line="68" data-uid="lnk10" id="link_ConsolaAdministrador_BoletasMaster"><path codeLine="68" d="M507.7763,1961.8194 C507.7763,1890.1294 507.7763,1830.8694 507.7763,1830.8694 C507.7763,1830.8694 607.3363,1830.8694 685.4863,1830.8694" fill="none" id="ConsolaAdministrador-to-BoletasMaster" style="stroke:#FFB000;stroke-width:1;"/><polygon fill="#FFB000" points="691.4863,1830.8694,682.4863,1826.8694,686.4863,1830.8694,682.4863,1834.8694,691.4863,1830.8694" style="stroke:#FFB000;stroke-width:1;"/><text fill="#FFB000" font-family="Verdana" font-size="13" lengthAdjust="spacing" textLength="50.8828" x="465.1563" y="1861.9363">sistema</text><text fill="#FFB000" font-family="Verdana" font-size="13" lengthAdjust="spacing" textLength="8.271" x="657.5064" y="1865.2106">1</text></g><!--link ConsolaCliente to BoletasMaster--><g class="link" data-entity-1="ConsolaCliente" data-entity-2="BoletasMaster" data-source-line="69" data-uid="lnk11" id="link_ConsolaCliente_BoletasMaster"><path codeLine="69" d="M495.1263,1801.8094 C563.7063,1801.8094 631.3163,1801.8094 685.6563,1801.8094" fill="none" id="ConsolaCliente-to-BoletasMaster" style="stroke:#FFB000;stroke-width:1;"/><polygon fill="#FFB000" points="691.6563,1801.8094,682.6563,1797.8094,686.6563,1801.8094,682.6563,1805.8094,691.6563,1801.8094" style="stroke:#FFB000;stroke-width:1;"/><text fill="#FFB000" font-family="Verdana" font-size="13" lengthAdjust="spacing" textLength="50.8828" x="524.3863" y="1779.8763">sistema</text><text fill="#FFB000" font-family="Verdana" font-size="13" lengthAdjust="spacing" textLength="8.271" x="657.6894" y="1779.021">1</text></g><!--link ConsolaOrganizador to BoletasMaster--><g class="link" data-entity-1="ConsolaOrganizador" data-entity-2="BoletasMaster" data-source-line="70" data-uid="lnk12" id="link_ConsolaOrganizador_BoletasMaster"><path codeLine="70" d="M526.7763,819.5494 C526.7763,1201.4394 526.7763,1781.6394 526.7763,1781.6394 C526.7763,1781.6394 613.6963,1781.6394 685.5763,1781.6394" fill="none" id="ConsolaOrganizador-to-BoletasMaster" style="stroke:#FFB000;stroke-width:1;"/><polygon fill="#FFB000" points="691.5763,1781.6394,682.5763,1777.6394,686.5763,1781.6394,682.5763,1785.6394,691.5763,1781.6394" style="stroke:#FFB000;stroke-width:1;"/><text fill="#FFB000" font-family="Verdana" font-size="13" lengthAdjust="spacing" textLength="50.8828" x="545.7763" y="1414.0663">sistema</text><text fill="#FFB000" font-family="Verdana" font-size="13" lengthAdjust="spacing" textLength="8.271" x="671.2388" y="1732.4">1</text></g><!--SRC=[fLLTQjj047xNAQP-YKDmIA2KOjg0wuGGY6jJDtq9UHXB4tdZrQuwkp9DGw27w3LwYjwa9-de9rIIPPDGltZvvflPdM- -NUt1- -vVi0Sp_9gHfo64rZYhKQ1jPA-yfgS464y_pgUN8_ZpuoTSNJY82FJlNuOmNuKsGHDP1_s9ZKZR78jieeoo-y4hlwH4EEm7c2o80qst7hm5Ll7IGwIOGg-i2TnAcHGP4z3AaBzF2IpxfQq5KWnN6DFStylHyZmqiQOQmSZ-Zb8uVdrKGndDga3V73MAHP4oCHo_hO6XHkT6thDQP9ukHAQv-avm50JLtj2hfEl1Gm0b7yObD6DbGfMYXklhErpZiA8UjkCtDqKom44xqjylST4kLCZz_I6ihOeAS521StAYLpF452ld6VdAPSZADg873ywZL-4Z9AXC7pbsGvXBZoQ-llb7V0pQ3OsYV8XvtSZobgOQd8t66j6-anKbE0HjOnNYuGUhoQEReC1STKvt56Q-tVgQU6wrjEypcV2CJAJ8U79D5de9r9WRDSxHe0YDxfmCCUfsWJfbPlbiBPlOdPGfnsZKzwAz1ayJyPaSaOjyPNodmcDTzB55sogweMg5lqZF2PdiAQznqCGMnYbxRUaXDpkLs6TLl0AxOcScIoYVSYUfUaPEIMVVTfQPPDghLBSuhXmeyYUYP66rQ-sIPWiX84zlYJrkpAk4HHPUaKyrXgtoIq5Of1KPkYh4vF87IYHKhivgQKLQYTTpLbUHBZjKyAcLunT7YefLfr5gFjjYbXfZmp1rbpx7D9KdSi-qfiM4dTUY25pQ4BMAi7NnKhQfbVlsHSfjc-nORXJ9Q3PUDfcVwDxfplfLtEbfAl-7C6B6-qiHu5tLVCau-QzHoR0sFW23mGdqZdkT6iCGgXa4dU_iotAVNf2NPTNjzBpClm00]--></g></svg>