<svg xmlns="http://www.w3.org/2000/svg" xmlns:xlink="http://www.w3.org/1999/xlink" contentStyleType="text/css" data-diagram-type="CLASS" height="369px" preserveAspectRatio="none" style="width:816px;height:369px;background:#282828;" version="1.1" viewBox="0 0 816 369" width="816px" zoomAndPan="magnify"><title>Paquete PERSISTENCIA &#8212; Serializaci&#243;n (Modelo de dominio)</title><defs/><g><rect fill="#282828" height="369" style="stroke:none;stroke-width:1;" width="816" x="0" y="0"/><g class="title" data-source-line="4"><text fill="#FFB000" font-family="Verdana" font-size="22" font-weight="bold" lengthAdjust="spacing" textLength="747.3125" x="33" y="53.4209">Paquete PERSISTENCIA &#8212; Serializaci&#243;n (Modelo de dominio)</text></g><!--cluster Persistencia--><g class="cluster" data-entity="Persistencia" data-source-line="14" data-uid="ent0002" id="cluster_Persistencia"><rect fill="#282828" height="269" rx="2.5" ry="2.5" style="stroke:#FFB000;stroke-width:1;" width="436.15" x="358.0063" y="94.6094"/><text fill="#FFB000" font-family="Verdana" font-size="14" font-weight="bold" lengthAdjust="spacing" textLength="96.8242" x="527.6691" y="127.6045">Persistencia</text></g><!--cluster logica--><g class="cluster" data-entity="logica" data-source-line="22" data-uid="ent0005" id="cluster_logica"><rect fill="#282828" height="165" rx="2.5" ry="2.5" style="stroke:#FFB000;stroke-width:1;" width="195.85" x="34.1563" y="146.6094"/><text fill="#FFB000" font-family="Verdana" font-size="14" font-weight="bold" lengthAdjust="spacing" textLength="46.9834" x="108.5896" y="179.6045">logica</text></g><!--class ArchivoSerializable--><g class="entity" data-entity="ArchivoSerializable" data-source-line="15" data-uid="ent0003" id="entity_ArchivoSerializable"><a href="java:Persistencia.ArchivoSerializable" target="_top" title="java:Persistencia.ArchivoSerializable" xlink:actuate="onRequest" xlink:href="java:Persistencia.ArchivoSerializable" xlink:show="new" xlink:title="java:Persistencia.ArchivoSerializable" xlink:type="simple"><rect fill="#282828" height="182.8906" rx="2.5" ry="2.5" style="stroke:#FFB000;stroke-width:1;" width="404.1592" x="374.0063" y="165.1594"/><ellipse cx="487.6034" cy="196.3078" fill="#FFB000" rx="9" ry="9" style="stroke:#FFB000;stroke-width:1;"/><path d="M490.5722,201.9484 Q489.994,202.2453 489.3534,202.3859 Q488.7128,202.5422 488.0097,202.5422 Q485.5097,202.5422 484.1815,200.9016 Q482.869,199.2453 482.869,196.1203 Q482.869,192.9953 484.1815,191.3391 Q485.5097,189.6828 488.0097,189.6828 Q488.7128,189.6828 489.3534,189.8391 Q490.0097,189.9953 490.5722,190.2922 L490.5722,193.0109 Q489.9472,192.4328 489.3534,192.1672 Q488.7597,191.8859 488.1347,191.8859 Q486.7909,191.8859 486.1034,192.9641 Q485.4159,194.0266 485.4159,196.1203 Q485.4159,198.2141 486.1034,199.2922 Q486.7909,200.3547 488.1347,200.3547 Q488.7597,200.3547 489.3534,200.0891 Q489.9472,199.8078 490.5722,199.2297 L490.5722,201.9484 Z " fill="#FFB000"/><text fill="#FFB000" font-family="Verdana" font-size="14" lengthAdjust="spacing" textLength="133.4648" x="523.1034" y="201.1545">ArchivoSerializable</text><line style="stroke:#FFB000;stroke-width:1;" x1="375.0063" x2="777.1654" y1="227.4563" y2="227.4563"/><line style="stroke:#FFB000;stroke-width:1;" x1="375.0063" x2="777.1654" y1="235.4563" y2="235.4563"/><text fill="#FFB000" font-family="Verdana" font-size="14" lengthAdjust="spacing" textLength="356.1592" x="398.0063" y="270.4514">+escribir(obj: Object, nombreArchivo: String): void</text><text fill="#FFB000" font-family="Verdana" font-size="14" lengthAdjust="spacing" textLength="262.2129" x="398.0063" y="322.7482">+leer(nombreArchivo: String): Object</text></a></g><!--class BoletasMaster--><g class="entity" data-entity="BoletasMaster" data-source-line="22" data-uid="ent0004" id="entity_BoletasMaster"><rect fill="#282828" height="78.2969" rx="2.5" ry="2.5" style="stroke:#FFB000;stroke-width:1;" width="163.8457" x="50.1563" y="217.4594"/><ellipse cx="63.1563" cy="248.6078" fill="#FFB000" rx="9" ry="9" style="stroke:#FFB000;stroke-width:1;"/><path d="M66.125,254.2484 Q65.5469,254.5453 64.9063,254.6859 Q64.2656,254.8422 63.5625,254.8422 Q61.0625,254.8422 59.7344,253.2016 Q58.4219,251.5453 58.4219,248.4203 Q58.4219,245.2953 59.7344,243.6391 Q61.0625,241.9828 63.5625,241.9828 Q64.2656,241.9828 64.9063,242.1391 Q65.5625,242.2953 66.125,242.5922 L66.125,245.3109 Q65.5,244.7328 64.9063,244.4672 Q64.3125,244.1859 63.6875,244.1859 Q62.3438,244.1859 61.6563,245.2641 Q60.9688,246.3266 60.9688,248.4203 Q60.9688,250.5141 61.6563,251.5922 Q62.3438,252.6547 63.6875,252.6547 Q64.3125,252.6547 64.9063,252.3891 Q65.5,252.1078 66.125,251.5297 L66.125,254.2484 Z " fill="#FFB000"/><text fill="#FFB000" font-family="Verdana" font-size="14" lengthAdjust="spacing" textLength="99.8457" x="93.1563" y="253.4545">BoletasMaster</text><line style="stroke:#FFB000;stroke-width:1;" x1="51.1563" x2="213.002" y1="279.7563" y2="279.7563"/><line style="stroke:#FFB000;stroke-width:1;" x1="51.1563" x2="213.002" y1="287.7563" y2="287.7563"/></g><!--link BoletasMaster to ArchivoSerializable--><g class="link" data-entity-1="BoletasMaster" data-entity-2="ArchivoSerializable" data-source-line="22" data-uid="lnk6" id="link_BoletasMaster_ArchivoSerializable"><path codeLine="22" d="M214.2963,256.6094 C259.4163,256.6094 311.5263,256.6094 367.9163,256.6094" fill="none" id="BoletasMaster-to-ArchivoSerializable" style="stroke:#FFB000;stroke-width:1;"/><polygon fill="#FFB000" points="373.9163,256.6094,364.9163,252.6094,368.9163,256.6094,364.9163,260.6094,373.9163,256.6094" style="stroke:#FFB000;stroke-width:1;"/><text fill="#FFB000" font-family="Verdana" font-size="13" lengthAdjust="spacing" textLength="22.9785" x="253.1063" y="287.6763">usa</text><text fill="#FFB000" font-family="Verdana" font-size="13" lengthAdjust="spacing" textLength="8.271" x="339.865" y="287.5952">1</text></g><!--SRC=[TL51JW914BpFArekO1GY5sCsqGGD1mueORqP3hspxT8mExFEz1B5cFW8V-8J_8alSHGqcmXpcQIcghjggWtdkuzgmmGVQX9AO48-S12ocZ7Y-nJ2OkXN1PFXD1sbjyFhgz40Fb_V82NFQ7YDcZ_UBNJ6BYVZ82V8NScMtQ4wa3cL1DfB5ykCl39qBo0EF1TpWPmzQM5dLLYohT1Z2OOjoLD5uBpCNUEXGht4Wb9vYgQ-TMWBGms2ZVi3LT0_FMcW7ktoFrfXdhCje7_M0BN140OYdhDQQAITJNbDSABKTZUqcZ_NWcS56n4Cl9xpolrzIHOztjqjS8L9KzBRmPlDVkO0757GSJNxZiiM2TnaYnZoECOgCqzROG9fj6UBmmHMZlEDpX3vpZxQPamalgWN5SkUajaM5ekgWuCOK-XHQZJGYJTv6uiphc2DlKjdI32CCVhtqErUGAlVsXasYRFm2m00]--></g></svg>