<svg xmlns="http://www.w3.org/2000/svg" xmlns:xlink="http://www.w3.org/1999/xlink" contentStyleType="text/css" data-diagram-type="CLASS" height="4205px" preserveAspectRatio="none" style="width:891px;height:4205px;background:#282828;" version="1.1" viewBox="0 0 891 4205" width="891px" zoomAndPan="magnify"><title>Paquete EXEPCIONES &#8212; Jerarqu&#237;a (Modelo de dominio)</title><defs/><g><rect fill="#282828" height="4205" style="stroke:none;stroke-width:1;" width="891" x="0" y="0"/><g class="title" data-source-line="4"><text fill="#FFB000" font-family="Verdana" font-size="22" font-weight="bold" lengthAdjust="spacing" textLength="680.3564" x="101.1118" y="53.4209">Paquete EXEPCIONES &#8212; Jerarqu&#237;a (Modelo de dominio)</text></g><!--cluster Exepciones--><g class="cluster" data-entity="Exepciones" data-source-line="14" data-uid="ent0002" id="cluster_Exepciones"><rect fill="#282828" height="4105" rx="2.5" ry="2.5" style="stroke:#FFB000;stroke-width:1;" width="596.43" x="289.15" y="94.6094"/><text fill="#FFB000" font-family="Verdana" font-size="14" font-weight="bold" lengthAdjust="spacing" textLength="88.6211" x="543.0545" y="127.6045">Exepciones</text></g><!--class OperacionNoAutorizadaException--><g class="entity" data-entity="OperacionNoAutorizadaException" data-source-line="15" data-uid="ent0003" id="entity_OperacionNoAutorizadaException"><a href="java:Exepciones.OperacionNoAutorizadaException" target="_top" title="java:Exepciones.OperacionNoAutorizadaException" xlink:actuate="onRequest" xlink:href="java:Exepciones.OperacionNoAutorizadaException" xlink:show="new" xlink:title="java:Exepciones.OperacionNoAutorizadaException" xlink:type="simple"><rect fill="#282828" height="182.8906" rx="2.5" ry="2.5" style="stroke:#FFB000;stroke-width:1;" width="416.71" x="379.01" y="4001.1594"/><ellipse cx="447.8113" cy="4032.3078" fill="#FFB000" rx="9" ry="9" style="stroke:#FFB000;stroke-width:1;"/><path d="M450.78,4037.9484 Q450.2019,4038.2453 449.5613,4038.3859 Q448.9206,4038.5422 448.2175,4038.5422 Q445.7175,4038.5422 444.3894,4036.9016 Q443.0769,4035.2453 443.0769,4032.1203 Q443.0769,4028.9953 444.3894,4027.3391 Q445.7175,4025.6828 448.2175,4025.6828 Q448.9206,4025.6828 449.5613,4025.8391 Q450.2175,4025.9953 450.78,4026.2922 L450.78,4029.0109 Q450.155,4028.4328 449.5613,4028.1672 Q448.9675,4027.8859 448.3425,4027.8859 Q446.9988,4027.8859 446.3113,4028.9641 Q445.6238,4030.0266 445.6238,4032.1203 Q445.6238,4034.2141 446.3113,4035.2922 Q446.9988,4036.3547 448.3425,4036.3547 Q448.9675,4036.3547 449.5613,4036.0891 Q450.155,4035.8078 450.78,4035.2297 L450.78,4037.9484 Z " fill="#FFB000"/><text fill="#FFB000" font-family="Verdana" font-size="14" lengthAdjust="spacing" textLength="235.6074" x="483.3113" y="4037.1545">OperacionNoAutorizadaException</text><line style="stroke:#FFB000;stroke-width:1;" x1="380.01" x2="794.72" y1="4063.4563" y2="4063.4563"/><line style="stroke:#FFB000;stroke-width:1;" x1="380.01" x2="794.72" y1="4071.4563" y2="4071.4563"/><text fill="#FFB000" font-family="Verdana" font-size="14" lengthAdjust="spacing" textLength="258.2617" x="403.01" y="4106.4514">+OperacionNoAutorizadaException()</text><text fill="#FFB000" font-family="Verdana" font-size="14" lengthAdjust="spacing" textLength="368.71" x="403.01" y="4158.7482">+OperacionNoAutorizadaException(mensaje: String)</text></a></g><!--class CapacidadLocalidadExcedidaException--><g class="entity" data-entity="CapacidadLocalidadExcedidaException" data-source-line="19" data-uid="ent0004" id="entity_CapacidadLocalidadExcedidaException"><a href="java:Exepciones.CapacidadLocalidadExcedidaException" target="_top" title="java:Exepciones.CapacidadLocalidadExcedidaException" xlink:actuate="onRequest" xlink:href="java:Exepciones.CapacidadLocalidadExcedidaException" xlink:show="new" xlink:title="java:Exepciones.CapacidadLocalidadExcedidaException" xlink:type="simple"><rect fill="#282828" height="130.5938" rx="2.5" ry="2.5" style="stroke:#FFB000;stroke-width:1;" width="428.584" x="373.07" y="3730.3094"/><ellipse cx="428.9308" cy="3761.4578" fill="#FFB000" rx="9" ry="9" style="stroke:#FFB000;stroke-width:1;"/><path d="M431.8996,3767.0984 Q431.3215,3767.3953 430.6808,3767.5359 Q430.0402,3767.6922 429.3371,3767.6922 Q426.8371,3767.6922 425.509,3766.0516 Q424.1965,3764.3953 424.1965,3761.2703 Q424.1965,3758.1453 425.509,3756.4891 Q426.8371,3754.8328 429.3371,3754.8328 Q430.0402,3754.8328 430.6808,3754.9891 Q431.3371,3755.1453 431.8996,3755.4422 L431.8996,3758.1609 Q431.2746,3757.5828 430.6808,3757.3172 Q430.0871,3757.0359 429.4621,3757.0359 Q428.1183,3757.0359 427.4308,3758.1141 Q426.7433,3759.1766 426.7433,3761.2703 Q426.7433,3763.3641 427.4308,3764.4422 Q428.1183,3765.5047 429.4621,3765.5047 Q430.0871,3765.5047 430.6808,3765.2391 Q431.2746,3764.9578 431.8996,3764.3797 L431.8996,3767.0984 Z " fill="#FFB000"/><text fill="#FFB000" font-family="Verdana" font-size="14" lengthAdjust="spacing" textLength="273.3623" x="464.4308" y="3766.3045">CapacidadLocalidadExcedidaException</text><line style="stroke:#FFB000;stroke-width:1;" x1="374.07" x2="800.654" y1="3792.6063" y2="3792.6063"/><line style="stroke:#FFB000;stroke-width:1;" x1="374.07" x2="800.654" y1="3800.6063" y2="3800.6063"/><text fill="#FFB000" font-family="Verdana" font-size="14" lengthAdjust="spacing" textLength="380.584" x="397.07" y="3835.6014">+CapacidadLocalidadExcedidaException(tiquetes: int)</text></a></g><!--class ReembolsoNoPermitidoException--><g class="entity" data-entity="ReembolsoNoPermitidoException" data-source-line="22" data-uid="ent0005" id="entity_ReembolsoNoPermitidoException"><a href="java:Exepciones.ReembolsoNoPermitidoException" target="_top" title="java:Exepciones.ReembolsoNoPermitidoException" xlink:actuate="onRequest" xlink:href="java:Exepciones.ReembolsoNoPermitidoException" xlink:show="new" xlink:title="java:Exepciones.ReembolsoNoPermitidoException" xlink:type="simple"><rect fill="#282828" height="182.8906" rx="2.5" ry="2.5" style="stroke:#FFB000;stroke-width:1;" width="459.8994" x="357.41" y="3407.1594"/><ellipse cx="449.0365" cy="3438.3078" fill="#FFB000" rx="9" ry="9" style="stroke:#FFB000;stroke-width:1;"/><path d="M452.0052,3443.9484 Q451.4271,3444.2453 450.7865,3444.3859 Q450.1458,3444.5422 449.4427,3444.5422 Q446.9427,3444.5422 445.6146,3442.9016 Q444.3021,3441.2453 444.3021,3438.1203 Q444.3021,3434.9953 445.6146,3433.3391 Q446.9427,3431.6828 449.4427,3431.6828 Q450.1458,3431.6828 450.7865,3431.8391 Q451.4427,3431.9953 452.0052,3432.2922 L452.0052,3435.0109 Q451.3802,3434.4328 450.7865,3434.1672 Q450.1927,3433.8859 449.5677,3433.8859 Q448.224,3433.8859 447.5365,3434.9641 Q446.849,3436.0266 446.849,3438.1203 Q446.849,3440.2141 447.5365,3441.2922 Q448.224,3442.3547 449.5677,3442.3547 Q450.1927,3442.3547 450.7865,3442.0891 Q451.3802,3441.8078 452.0052,3441.2297 L452.0052,3443.9484 Z " fill="#FFB000"/><text fill="#FFB000" font-family="Verdana" font-size="14" lengthAdjust="spacing" textLength="233.1465" x="484.5365" y="3443.1545">ReembolsoNoPermitidoException</text><line style="stroke:#FFB000;stroke-width:1;" x1="358.41" x2="816.3094" y1="3469.4563" y2="3469.4563"/><line style="stroke:#FFB000;stroke-width:1;" x1="358.41" x2="816.3094" y1="3477.4563" y2="3477.4563"/><text fill="#FFB000" font-family="Verdana" font-size="14" lengthAdjust="spacing" textLength="411.8994" x="381.41" y="3512.4514">+ReembolsoNoPermitidoException(usuario: logica.Cliente)</text><text fill="#FFB000" font-family="Verdana" font-size="14" lengthAdjust="spacing" textLength="366.249" x="381.41" y="3564.7482">+ReembolsoNoPermitidoException(mensaje: String)</text></a></g><!--class VenueNoDisponibleException--><g class="entity" data-entity="VenueNoDisponibleException" data-source-line="26" data-uid="ent0006" id="entity_VenueNoDisponibleException"><a href="java:Exepciones.VenueNoDisponibleException" target="_top" title="java:Exepciones.VenueNoDisponibleException" xlink:actuate="onRequest" xlink:href="java:Exepciones.VenueNoDisponibleException" xlink:show="new" xlink:title="java:Exepciones.VenueNoDisponibleException" xlink:type="simple"><rect fill="#282828" height="182.8906" rx="2.5" ry="2.5" style="stroke:#FFB000;stroke-width:1;" width="419.8887" x="377.42" y="3084.1594"/><ellipse cx="462.4635" cy="3115.3078" fill="#FFB000" rx="9" ry="9" style="stroke:#FFB000;stroke-width:1;"/><path d="M465.4322,3120.9484 Q464.8541,3121.2453 464.2135,3121.3859 Q463.5728,3121.5422 462.8697,3121.5422 Q460.3697,3121.5422 459.0416,3119.9016 Q457.7291,3118.2453 457.7291,3115.1203 Q457.7291,3111.9953 459.0416,3110.3391 Q460.3697,3108.6828 462.8697,3108.6828 Q463.5728,3108.6828 464.2135,3108.8391 Q464.8697,3108.9953 465.4322,3109.2922 L465.4322,3112.0109 Q464.8072,3111.4328 464.2135,3111.1672 Q463.6197,3110.8859 462.9947,3110.8859 Q461.651,3110.8859 460.9635,3111.9641 Q460.276,3113.0266 460.276,3115.1203 Q460.276,3117.2141 460.9635,3118.2922 Q461.651,3119.3547 462.9947,3119.3547 Q463.6197,3119.3547 464.2135,3119.0891 Q464.8072,3118.8078 465.4322,3118.2297 L465.4322,3120.9484 Z " fill="#FFB000"/><text fill="#FFB000" font-family="Verdana" font-size="14" lengthAdjust="spacing" textLength="206.3018" x="497.9635" y="3120.1545">VenueNoDisponibleException</text><line style="stroke:#FFB000;stroke-width:1;" x1="378.42" x2="796.3087" y1="3146.4563" y2="3146.4563"/><line style="stroke:#FFB000;stroke-width:1;" x1="378.42" x2="796.3087" y1="3154.4563" y2="3154.4563"/><text fill="#FFB000" font-family="Verdana" font-size="14" lengthAdjust="spacing" textLength="371.8887" x="401.42" y="3189.4514">+VenueNoDisponibleException(venue: logica.Venue)</text><text fill="#FFB000" font-family="Verdana" font-size="14" lengthAdjust="spacing" textLength="339.4043" x="401.42" y="3241.7482">+VenueNoDisponibleException(mensaje: String)</text></a></g><!--class UsuarioNoEncontradoException--><g class="entity" data-entity="UsuarioNoEncontradoException" data-source-line="30" data-uid="ent0007" id="entity_UsuarioNoEncontradoException"><a href="java:Exepciones.UsuarioNoEncontradoException" target="_top" title="java:Exepciones.UsuarioNoEncontradoException" xlink:actuate="onRequest" xlink:href="java:Exepciones.UsuarioNoEncontradoException" xlink:show="new" xlink:title="java:Exepciones.UsuarioNoEncontradoException" xlink:type="simple"><rect fill="#282828" height="130.5938" rx="2.5" ry="2.5" style="stroke:#FFB000;stroke-width:1;" width="377.2256" x="398.75" y="2813.3094"/><ellipse cx="454.8535" cy="2844.4578" fill="#FFB000" rx="9" ry="9" style="stroke:#FFB000;stroke-width:1;"/><path d="M457.8223,2850.0984 Q457.2441,2850.3953 456.6035,2850.5359 Q455.9629,2850.6922 455.2598,2850.6922 Q452.7598,2850.6922 451.4316,2849.0516 Q450.1191,2847.3953 450.1191,2844.2703 Q450.1191,2841.1453 451.4316,2839.4891 Q452.7598,2837.8328 455.2598,2837.8328 Q455.9629,2837.8328 456.6035,2837.9891 Q457.2598,2838.1453 457.8223,2838.4422 L457.8223,2841.1609 Q457.1973,2840.5828 456.6035,2840.3172 Q456.0098,2840.0359 455.3848,2840.0359 Q454.041,2840.0359 453.3535,2841.1141 Q452.666,2842.1766 452.666,2844.2703 Q452.666,2846.3641 453.3535,2847.4422 Q454.041,2848.5047 455.3848,2848.5047 Q456.0098,2848.5047 456.6035,2848.2391 Q457.1973,2847.9578 457.8223,2847.3797 L457.8223,2850.0984 Z " fill="#FFB000"/><text fill="#FFB000" font-family="Verdana" font-size="14" lengthAdjust="spacing" textLength="221.5186" x="490.3535" y="2849.3045">UsuarioNoEncontradoException</text><line style="stroke:#FFB000;stroke-width:1;" x1="399.75" x2="774.9756" y1="2875.6063" y2="2875.6063"/><line style="stroke:#FFB000;stroke-width:1;" x1="399.75" x2="774.9756" y1="2883.6063" y2="2883.6063"/><text fill="#FFB000" font-family="Verdana" font-size="14" lengthAdjust="spacing" textLength="329.2256" x="422.75" y="2918.6014">+UsuarioNoEncontradoException(login: String)</text></a></g><!--class SaldoInsuficienteException--><g class="entity" data-entity="SaldoInsuficienteException" data-source-line="33" data-uid="ent0008" id="entity_SaldoInsuficienteException"><a href="java:Exepciones.SaldoInsuficienteException" target="_top" title="java:Exepciones.SaldoInsuficienteException" xlink:actuate="onRequest" xlink:href="java:Exepciones.SaldoInsuficienteException" xlink:show="new" xlink:title="java:Exepciones.SaldoInsuficienteException" xlink:type="simple"><rect fill="#282828" height="182.8906" rx="2.5" ry="2.5" style="stroke:#FFB000;stroke-width:1;" width="415.8691" x="379.43" y="2490.1594"/><ellipse cx="471.0565" cy="2521.3078" fill="#FFB000" rx="9" ry="9" style="stroke:#FFB000;stroke-width:1;"/><path d="M474.0252,2526.9484 Q473.4471,2527.2453 472.8065,2527.3859 Q472.1658,2527.5422 471.4627,2527.5422 Q468.9627,2527.5422 467.6346,2525.9016 Q466.3221,2524.2453 466.3221,2521.1203 Q466.3221,2517.9953 467.6346,2516.3391 Q468.9627,2514.6828 471.4627,2514.6828 Q472.1658,2514.6828 472.8065,2514.8391 Q473.4627,2514.9953 474.0252,2515.2922 L474.0252,2518.0109 Q473.4002,2517.4328 472.8065,2517.1672 Q472.2127,2516.8859 471.5877,2516.8859 Q470.244,2516.8859 469.5565,2517.9641 Q468.869,2519.0266 468.869,2521.1203 Q468.869,2523.2141 469.5565,2524.2922 Q470.244,2525.3547 471.5877,2525.3547 Q472.2127,2525.3547 472.8065,2525.0891 Q473.4002,2524.8078 474.0252,2524.2297 L474.0252,2526.9484 Z " fill="#FFB000"/><text fill="#FFB000" font-family="Verdana" font-size="14" lengthAdjust="spacing" textLength="189.1162" x="506.5565" y="2526.1545">SaldoInsuficienteException</text><line style="stroke:#FFB000;stroke-width:1;" x1="380.43" x2="794.2991" y1="2552.4563" y2="2552.4563"/><line style="stroke:#FFB000;stroke-width:1;" x1="380.43" x2="794.2991" y1="2560.4563" y2="2560.4563"/><text fill="#FFB000" font-family="Verdana" font-size="14" lengthAdjust="spacing" textLength="322.2188" x="403.43" y="2595.4514">+SaldoInsuficienteException(mensaje: String)</text><text fill="#FFB000" font-family="Verdana" font-size="14" lengthAdjust="spacing" textLength="367.8691" x="403.43" y="2647.7482">+SaldoInsuficienteException(usuario: logica.Cliente)</text></a></g><!--class TiqueteVencidoFecha--><g class="entity" data-entity="TiqueteVencidoFecha" data-source-line="37" data-uid="ent0009" id="entity_TiqueteVencidoFecha"><a href="java:Exepciones.TiqueteVencidoFecha" target="_top" title="java:Exepciones.TiqueteVencidoFecha" xlink:actuate="onRequest" xlink:href="java:Exepciones.TiqueteVencidoFecha" xlink:show="new" xlink:title="java:Exepciones.TiqueteVencidoFecha" xlink:type="simple"><rect fill="#282828" height="130.5938" rx="2.5" ry="2.5" style="stroke:#FFB000;stroke-width:1;" width="379.3857" x="397.67" y="2219.3094"/><ellipse cx="490.1954" cy="2250.4578" fill="#FFB000" rx="9" ry="9" style="stroke:#FFB000;stroke-width:1;"/><path d="M493.1641,2256.0984 Q492.586,2256.3953 491.9454,2256.5359 Q491.3048,2256.6922 490.6016,2256.6922 Q488.1016,2256.6922 486.7735,2255.0516 Q485.461,2253.3953 485.461,2250.2703 Q485.461,2247.1453 486.7735,2245.4891 Q488.1016,2243.8328 490.6016,2243.8328 Q491.3048,2243.8328 491.9454,2243.9891 Q492.6016,2244.1453 493.1641,2244.4422 L493.1641,2247.1609 Q492.5391,2246.5828 491.9454,2246.3172 Q491.3516,2246.0359 490.7266,2246.0359 Q489.3829,2246.0359 488.6954,2247.1141 Q488.0079,2248.1766 488.0079,2250.2703 Q488.0079,2252.3641 488.6954,2253.4422 Q489.3829,2254.5047 490.7266,2254.5047 Q491.3516,2254.5047 491.9454,2254.2391 Q492.5391,2253.9578 493.1641,2253.3797 L493.1641,2256.0984 Z " fill="#FFB000"/><text fill="#FFB000" font-family="Verdana" font-size="14" lengthAdjust="spacing" textLength="150.835" x="525.6954" y="2255.3045">TiqueteVencidoFecha</text><line style="stroke:#FFB000;stroke-width:1;" x1="398.67" x2="776.0557" y1="2281.6063" y2="2281.6063"/><line style="stroke:#FFB000;stroke-width:1;" x1="398.67" x2="776.0557" y1="2289.6063" y2="2289.6063"/><text fill="#FFB000" font-family="Verdana" font-size="14" lengthAdjust="spacing" textLength="331.3857" x="421.67" y="2324.6014">+TiqueteVencidoFecha(tiquete: logica.Tiquete)</text></a></g><!--class LocalidadNoExisteException--><g class="entity" data-entity="LocalidadNoExisteException" data-source-line="40" data-uid="ent0010" id="entity_LocalidadNoExisteException"><a href="java:Exepciones.LocalidadNoExisteException" target="_top" title="java:Exepciones.LocalidadNoExisteException" xlink:actuate="onRequest" xlink:href="java:Exepciones.LocalidadNoExisteException" xlink:show="new" xlink:title="java:Exepciones.LocalidadNoExisteException" xlink:type="simple"><rect fill="#282828" height="130.5938" rx="2.5" ry="2.5" style="stroke:#FFB000;stroke-width:1;" width="440.082" x="367.32" y="1948.3094"/><ellipse cx="466.924" cy="1979.4578" fill="#FFB000" rx="9" ry="9" style="stroke:#FFB000;stroke-width:1;"/><path d="M469.8928,1985.0984 Q469.3146,1985.3953 468.674,1985.5359 Q468.0334,1985.6922 467.3303,1985.6922 Q464.8303,1985.6922 463.5021,1984.0516 Q462.1896,1982.3953 462.1896,1979.2703 Q462.1896,1976.1453 463.5021,1974.4891 Q464.8303,1972.8328 467.3303,1972.8328 Q468.0334,1972.8328 468.674,1972.9891 Q469.3303,1973.1453 469.8928,1973.4422 L469.8928,1976.1609 Q469.2678,1975.5828 468.674,1975.3172 Q468.0803,1975.0359 467.4553,1975.0359 Q466.1115,1975.0359 465.424,1976.1141 Q464.7365,1977.1766 464.7365,1979.2703 Q464.7365,1981.3641 465.424,1982.4422 Q466.1115,1983.5047 467.4553,1983.5047 Q468.0803,1983.5047 468.674,1983.2391 Q469.2678,1982.9578 469.8928,1982.3797 L469.8928,1985.0984 Z " fill="#FFB000"/><text fill="#FFB000" font-family="Verdana" font-size="14" lengthAdjust="spacing" textLength="197.374" x="502.424" y="1984.3045">LocalidadNoExisteException</text><line style="stroke:#FFB000;stroke-width:1;" x1="368.32" x2="806.402" y1="2010.6062" y2="2010.6062"/><line style="stroke:#FFB000;stroke-width:1;" x1="368.32" x2="806.402" y1="2018.6062" y2="2018.6062"/><text fill="#FFB000" font-family="Verdana" font-size="14" lengthAdjust="spacing" textLength="392.082" x="391.32" y="2053.6014">+LocalidadNoExisteException(nombreLocalidad: String)</text></a></g><!--class CapacidadVenueExcedidaException--><g class="entity" data-entity="CapacidadVenueExcedidaException" data-source-line="43" data-uid="ent0011" id="entity_CapacidadVenueExcedidaException"><a href="java:Exepciones.CapacidadVenueExcedidaException" target="_top" title="java:Exepciones.CapacidadVenueExcedidaException" xlink:actuate="onRequest" xlink:href="java:Exepciones.CapacidadVenueExcedidaException" xlink:show="new" xlink:title="java:Exepciones.CapacidadVenueExcedidaException" xlink:type="simple"><rect fill="#282828" height="130.5938" rx="2.5" ry="2.5" style="stroke:#FFB000;stroke-width:1;" width="420.8936" x="376.92" y="1677.3094"/><ellipse cx="440.0474" cy="1708.4578" fill="#FFB000" rx="9" ry="9" style="stroke:#FFB000;stroke-width:1;"/><path d="M443.0162,1714.0984 Q442.4381,1714.3953 441.7974,1714.5359 Q441.1568,1714.6922 440.4537,1714.6922 Q437.9537,1714.6922 436.6256,1713.0516 Q435.3131,1711.3953 435.3131,1708.2703 Q435.3131,1705.1453 436.6256,1703.4891 Q437.9537,1701.8328 440.4537,1701.8328 Q441.1568,1701.8328 441.7974,1701.9891 Q442.4537,1702.1453 443.0162,1702.4422 L443.0162,1705.1609 Q442.3912,1704.5828 441.7974,1704.3172 Q441.2037,1704.0359 440.5787,1704.0359 Q439.2349,1704.0359 438.5474,1705.1141 Q437.8599,1706.1766 437.8599,1708.2703 Q437.8599,1710.3641 438.5474,1711.4422 Q439.2349,1712.5047 440.5787,1712.5047 Q441.2037,1712.5047 441.7974,1712.2391 Q442.3912,1711.9578 443.0162,1711.3797 L443.0162,1714.0984 Z " fill="#FFB000"/><text fill="#FFB000" font-family="Verdana" font-size="14" lengthAdjust="spacing" textLength="251.1387" x="475.5474" y="1713.3045">CapacidadVenueExcedidaException</text><line style="stroke:#FFB000;stroke-width:1;" x1="377.92" x2="796.8136" y1="1739.6062" y2="1739.6062"/><line style="stroke:#FFB000;stroke-width:1;" x1="377.92" x2="796.8136" y1="1747.6062" y2="1747.6062"/><text fill="#FFB000" font-family="Verdana" font-size="14" lengthAdjust="spacing" textLength="372.8936" x="400.92" y="1782.6014">+CapacidadVenueExcedidaException(capacidad: int)</text></a></g><!--class OrganizadorNoTieneEventosException--><g class="entity" data-entity="OrganizadorNoTieneEventosException" data-source-line="46" data-uid="ent0012" id="entity_OrganizadorNoTieneEventosException"><a href="java:Exepciones.OrganizadorNoTieneEventosException" target="_top" title="java:Exepciones.OrganizadorNoTieneEventosException" xlink:actuate="onRequest" xlink:href="java:Exepciones.OrganizadorNoTieneEventosException" xlink:show="new" xlink:title="java:Exepciones.OrganizadorNoTieneEventosException" xlink:type="simple"><rect fill="#282828" height="130.5938" rx="2.5" ry="2.5" style="stroke:#FFB000;stroke-width:1;" width="564.4346" x="305.15" y="1406.3094"/><ellipse cx="431.2022" cy="1437.4578" fill="#FFB000" rx="9" ry="9" style="stroke:#FFB000;stroke-width:1;"/><path d="M434.171,1443.0984 Q433.5929,1443.3953 432.9522,1443.5359 Q432.3116,1443.6922 431.6085,1443.6922 Q429.1085,1443.6922 427.7804,1442.0516 Q426.4679,1440.3953 426.4679,1437.2703 Q426.4679,1434.1453 427.7804,1432.4891 Q429.1085,1430.8328 431.6085,1430.8328 Q432.3116,1430.8328 432.9522,1430.9891 Q433.6085,1431.1453 434.171,1431.4422 L434.171,1434.1609 Q433.546,1433.5828 432.9522,1433.3172 Q432.3585,1433.0359 431.7335,1433.0359 Q430.3897,1433.0359 429.7022,1434.1141 Q429.0147,1435.1766 429.0147,1437.2703 Q429.0147,1439.3641 429.7022,1440.4422 Q430.3897,1441.5047 431.7335,1441.5047 Q432.3585,1441.5047 432.9522,1441.2391 Q433.546,1440.9578 434.171,1440.3797 L434.171,1443.0984 Z " fill="#FFB000"/><text fill="#FFB000" font-family="Verdana" font-size="14" lengthAdjust="spacing" textLength="268.8301" x="466.7022" y="1442.3045">OrganizadorNoTieneEventosException</text><line style="stroke:#FFB000;stroke-width:1;" x1="306.15" x2="868.5846" y1="1468.6062" y2="1468.6062"/><line style="stroke:#FFB000;stroke-width:1;" x1="306.15" x2="868.5846" y1="1476.6062" y2="1476.6062"/><text fill="#FFB000" font-family="Verdana" font-size="14" lengthAdjust="spacing" textLength="516.4346" x="329.15" y="1511.6014">+OrganizadorNoTieneEventosException(organizador: logica.Organizador)</text></a></g><!--class TiqueteNoEncontradoException--><g class="entity" data-entity="TiqueteNoEncontradoException" data-source-line="49" data-uid="ent0013" id="entity_TiqueteNoEncontradoException"><a href="java:Exepciones.TiqueteNoEncontradoException" target="_top" title="java:Exepciones.TiqueteNoEncontradoException" xlink:actuate="onRequest" xlink:href="java:Exepciones.TiqueteNoEncontradoException" xlink:show="new" xlink:title="java:Exepciones.TiqueteNoEncontradoException" xlink:type="simple"><rect fill="#282828" height="130.5938" rx="2.5" ry="2.5" style="stroke:#FFB000;stroke-width:1;" width="384.998" x="394.86" y="1135.3094"/><ellipse cx="454.9933" cy="1166.4578" fill="#FFB000" rx="9" ry="9" style="stroke:#FFB000;stroke-width:1;"/><path d="M457.9621,1172.0984 Q457.3839,1172.3953 456.7433,1172.5359 Q456.1027,1172.6922 455.3996,1172.6922 Q452.8996,1172.6922 451.5714,1171.0516 Q450.2589,1169.3953 450.2589,1166.2703 Q450.2589,1163.1453 451.5714,1161.4891 Q452.8996,1159.8328 455.3996,1159.8328 Q456.1027,1159.8328 456.7433,1159.9891 Q457.3996,1160.1453 457.9621,1160.4422 L457.9621,1163.1609 Q457.3371,1162.5828 456.7433,1162.3172 Q456.1496,1162.0359 455.5246,1162.0359 Q454.1808,1162.0359 453.4933,1163.1141 Q452.8058,1164.1766 452.8058,1166.2703 Q452.8058,1168.3641 453.4933,1169.4422 Q454.1808,1170.5047 455.5246,1170.5047 Q456.1496,1170.5047 456.7433,1170.2391 Q457.3371,1169.9578 457.9621,1169.3797 L457.9621,1172.0984 Z " fill="#FFB000"/><text fill="#FFB000" font-family="Verdana" font-size="14" lengthAdjust="spacing" textLength="221.2314" x="490.4933" y="1171.3045">TiqueteNoEncontradoException</text><line style="stroke:#FFB000;stroke-width:1;" x1="395.86" x2="778.858" y1="1197.6062" y2="1197.6062"/><line style="stroke:#FFB000;stroke-width:1;" x1="395.86" x2="778.858" y1="1205.6062" y2="1205.6062"/><text fill="#FFB000" font-family="Verdana" font-size="14" lengthAdjust="spacing" textLength="336.998" x="418.86" y="1240.6014">+TiqueteNoEncontradoException(idTiquete: int)</text></a></g><!--class CantidadTiquetesExcedidaException--><g class="entity" data-entity="CantidadTiquetesExcedidaException" data-source-line="52" data-uid="ent0014" id="entity_CantidadTiquetesExcedidaException"><a href="java:Exepciones.CantidadTiquetesExcedidaException" target="_top" title="java:Exepciones.CantidadTiquetesExcedidaException" xlink:actuate="onRequest" xlink:href="java:Exepciones.CantidadTiquetesExcedidaException" xlink:show="new" xlink:title="java:Exepciones.CantidadTiquetesExcedidaException" xlink:type="simple"><rect fill="#282828" height="182.8906" rx="2.5" ry="2.5" style="stroke:#FFB000;stroke-width:1;" width="437.1016" x="368.81" y="812.1594"/><ellipse cx="437.6113" cy="843.3078" fill="#FFB000" rx="9" ry="9" style="stroke:#FFB000;stroke-width:1;"/><path d="M440.58,848.9484 Q440.0019,849.2453 439.3613,849.3859 Q438.7206,849.5422 438.0175,849.5422 Q435.5175,849.5422 434.1894,847.9016 Q432.8769,846.2453 432.8769,843.1203 Q432.8769,839.9953 434.1894,838.3391 Q435.5175,836.6828 438.0175,836.6828 Q438.7206,836.6828 439.3613,836.8391 Q440.0175,836.9953 440.58,837.2922 L440.58,840.0109 Q439.955,839.4328 439.3613,839.1672 Q438.7675,838.8859 438.1425,838.8859 Q436.7988,838.8859 436.1113,839.9641 Q435.4238,841.0266 435.4238,843.1203 Q435.4238,845.2141 436.1113,846.2922 Q436.7988,847.3547 438.1425,847.3547 Q438.7675,847.3547 439.3613,847.0891 Q439.955,846.8078 440.58,846.2297 L440.58,848.9484 Z " fill="#FFB000"/><text fill="#FFB000" font-family="Verdana" font-size="14" lengthAdjust="spacing" textLength="255.999" x="473.1113" y="848.1545">CantidadTiquetesExcedidaException</text><line style="stroke:#FFB000;stroke-width:1;" x1="369.81" x2="804.9116" y1="874.4563" y2="874.4563"/><line style="stroke:#FFB000;stroke-width:1;" x1="369.81" x2="804.9116" y1="882.4563" y2="882.4563"/><text fill="#FFB000" font-family="Verdana" font-size="14" lengthAdjust="spacing" textLength="336.5742" x="392.81" y="917.4514">+CantidadTiquetesExcedidaException(max: int)</text><text fill="#FFB000" font-family="Verdana" font-size="14" lengthAdjust="spacing" textLength="389.1016" x="392.81" y="969.7482">+CantidadTiquetesExcedidaException(mensaje: String)</text></a></g><!--class TiqueteNoTransferibleException--><g class="entity" data-entity="TiqueteNoTransferibleException" data-source-line="56" data-uid="ent0015" id="entity_TiqueteNoTransferibleException"><a href="java:Exepciones.TiqueteNoTransferibleException" target="_top" title="java:Exepciones.TiqueteNoTransferibleException" xlink:actuate="onRequest" xlink:href="java:Exepciones.TiqueteNoTransferibleException" xlink:show="new" xlink:title="java:Exepciones.TiqueteNoTransferibleException" xlink:type="simple"><rect fill="#282828" height="130.5938" rx="2.5" ry="2.5" style="stroke:#FFB000;stroke-width:1;" width="453.2822" x="360.72" y="541.3094"/><ellipse cx="453.2454" cy="572.4578" fill="#FFB000" rx="9" ry="9" style="stroke:#FFB000;stroke-width:1;"/><path d="M456.2141,578.0984 Q455.636,578.3953 454.9954,578.5359 Q454.3548,578.6922 453.6516,578.6922 Q451.1516,578.6922 449.8235,577.0516 Q448.511,575.3953 448.511,572.2703 Q448.511,569.1453 449.8235,567.4891 Q451.1516,565.8328 453.6516,565.8328 Q454.3548,565.8328 454.9954,565.9891 Q455.6516,566.1453 456.2141,566.4422 L456.2141,569.1609 Q455.5891,568.5828 454.9954,568.3172 Q454.4016,568.0359 453.7766,568.0359 Q452.4329,568.0359 451.7454,569.1141 Q451.0579,570.1766 451.0579,572.2703 Q451.0579,574.3641 451.7454,575.4422 Q452.4329,576.5047 453.7766,576.5047 Q454.4016,576.5047 454.9954,576.2391 Q455.5891,575.9578 456.2141,575.3797 L456.2141,578.0984 Z " fill="#FFB000"/><text fill="#FFB000" font-family="Verdana" font-size="14" lengthAdjust="spacing" textLength="224.7314" x="488.7454" y="577.3045">TiqueteNoTransferibleException</text><line style="stroke:#FFB000;stroke-width:1;" x1="361.72" x2="813.0022" y1="603.6062" y2="603.6062"/><line style="stroke:#FFB000;stroke-width:1;" x1="361.72" x2="813.0022" y1="611.6062" y2="611.6062"/><text fill="#FFB000" font-family="Verdana" font-size="14" lengthAdjust="spacing" textLength="405.2822" x="384.72" y="646.6014">+TiqueteNoTransferibleException(tiquete: logica.Tiquete)</text></a></g><!--class PasswordIncorrectoException--><g class="entity" data-entity="PasswordIncorrectoException" data-source-line="59" data-uid="ent0016" id="entity_PasswordIncorrectoException"><a href="java:Exepciones.PasswordIncorrectoException" target="_top" title="java:Exepciones.PasswordIncorrectoException" xlink:actuate="onRequest" xlink:href="java:Exepciones.PasswordIncorrectoException" xlink:show="new" xlink:title="java:Exepciones.PasswordIncorrectoException" xlink:type="simple"><rect fill="#282828" height="235.1875" rx="2.5" ry="2.5" style="stroke:#FFB000;stroke-width:1;" width="470.3037" x="352.21" y="166.0194"/><ellipse cx="462.3345" cy="197.1678" fill="#FFB000" rx="9" ry="9" style="stroke:#FFB000;stroke-width:1;"/><path d="M465.3033,202.8084 Q464.7251,203.1053 464.0845,203.2459 Q463.4439,203.4022 462.7408,203.4022 Q460.2408,203.4022 458.9126,201.7616 Q457.6001,200.1053 457.6001,196.9803 Q457.6001,193.8553 458.9126,192.1991 Q460.2408,190.5428 462.7408,190.5428 Q463.4439,190.5428 464.0845,190.6991 Q464.7408,190.8553 465.3033,191.1522 L465.3033,193.8709 Q464.6783,193.2928 464.0845,193.0272 Q463.4908,192.7459 462.8658,192.7459 Q461.522,192.7459 460.8345,193.8241 Q460.147,194.8866 460.147,196.9803 Q460.147,199.0741 460.8345,200.1522 Q461.522,201.2147 462.8658,201.2147 Q463.4908,201.2147 464.0845,200.9491 Q464.6783,200.6678 465.3033,200.0897 L465.3033,202.8084 Z " fill="#FFB000"/><text fill="#FFB000" font-family="Verdana" font-size="14" lengthAdjust="spacing" textLength="206.5547" x="497.8345" y="202.0145">PasswordIncorrectoException</text><line style="stroke:#FFB000;stroke-width:1;" x1="353.21" x2="821.5137" y1="228.3162" y2="228.3162"/><line style="stroke:#FFB000;stroke-width:1;" x1="353.21" x2="821.5137" y1="236.3162" y2="236.3162"/><text fill="#FFB000" font-family="Verdana" font-size="14" lengthAdjust="spacing" textLength="385.3076" x="376.21" y="271.3114">+PasswordIncorrectoException(usuario: logica.Cliente)</text><text fill="#FFB000" font-family="Verdana" font-size="14" lengthAdjust="spacing" textLength="339.6572" x="376.21" y="323.6082">+PasswordIncorrectoException(mensaje: String)</text><text fill="#FFB000" font-family="Verdana" font-size="14" lengthAdjust="spacing" textLength="422.3037" x="376.21" y="375.9051">+PasswordIncorrectoException(usuario: logica.Organizador)</text></a></g><!--class Exception--><g class="entity" data-entity="Exception" data-source-line="66" data-uid="ent0017" id="entity_Exception"><rect fill="#282828" height="78.2969" rx="2.5" ry="2.5" style="stroke:#FFB000;stroke-width:1;" width="133.1455" x="12" y="2110.4594"/><ellipse cx="25" cy="2141.6078" fill="#FFB000" rx="9" ry="9" style="stroke:#FFB000;stroke-width:1;"/><path d="M27.9688,2147.2484 Q27.3906,2147.5453 26.75,2147.6859 Q26.1094,2147.8422 25.4063,2147.8422 Q22.9063,2147.8422 21.5781,2146.2016 Q20.2656,2144.5453 20.2656,2141.4203 Q20.2656,2138.2953 21.5781,2136.6391 Q22.9063,2134.9828 25.4063,2134.9828 Q26.1094,2134.9828 26.75,2135.1391 Q27.4063,2135.2953 27.9688,2135.5922 L27.9688,2138.3109 Q27.3438,2137.7328 26.75,2137.4672 Q26.1563,2137.1859 25.5313,2137.1859 Q24.1875,2137.1859 23.5,2138.2641 Q22.8125,2139.3266 22.8125,2141.4203 Q22.8125,2143.5141 23.5,2144.5922 Q24.1875,2145.6547 25.5313,2145.6547 Q26.1563,2145.6547 26.75,2145.3891 Q27.3438,2145.1078 27.9688,2144.5297 L27.9688,2147.2484 Z " fill="#FFB000"/><text fill="#FFB000" font-family="Verdana" font-size="14" lengthAdjust="spacing" textLength="69.1455" x="55" y="2146.4545">Exception</text><line style="stroke:#FFB000;stroke-width:1;" x1="13" x2="144.1455" y1="2172.7563" y2="2172.7563"/><line style="stroke:#FFB000;stroke-width:1;" x1="13" x2="144.1455" y1="2180.7563" y2="2180.7563"/></g><!--reverse link Exception to OperacionNoAutorizadaException--><g class="link" data-entity-1="Exception" data-entity-2="OperacionNoAutorizadaException" data-source-line="67" data-uid="lnk18" id="link_Exception_OperacionNoAutorizadaException"><path codeLine="67" d="M34.58,2206.8594 C34.58,2482.0094 34.58,4092.6094 34.58,4092.6094 C34.58,4092.6094 222.16,4092.6094 378.77,4092.6094" fill="none" id="Exception-backto-OperacionNoAutorizadaException" style="stroke:#FFB000;stroke-width:1;"/><polygon fill="none" points="34.58,2188.8594,28.58,2206.8594,40.58,2206.8594,34.58,2188.8594" style="stroke:#FFB000;stroke-width:1;"/></g><!--reverse link Exception to CapacidadLocalidadExcedidaException--><g class="link" data-entity-1="Exception" data-entity-2="CapacidadLocalidadExcedidaException" data-source-line="68" data-uid="lnk19" id="link_Exception_CapacidadLocalidadExcedidaException"><path codeLine="68" d="M56.58,2207.0794 C56.58,2457.3894 56.58,3795.6094 56.58,3795.6094 C56.58,3795.6094 225.4,3795.6094 372.62,3795.6094" fill="none" id="Exception-backto-CapacidadLocalidadExcedidaException" style="stroke:#FFB000;stroke-width:1;"/><polygon fill="none" points="56.58,2189.0794,50.58,2207.0794,62.58,2207.0794,56.58,2189.0794" style="stroke:#FFB000;stroke-width:1;"/></g><!--reverse link Exception to ReembolsoNoPermitidoException--><g class="link" data-entity-1="Exception" data-entity-2="ReembolsoNoPermitidoException" data-source-line="69" data-uid="lnk20" id="link_Exception_ReembolsoNoPermitidoException"><path codeLine="69" d="M163.52,2173.0994 C247.48,2173.0994 362.58,2173.0994 362.58,2173.0994 C362.58,2173.0994 362.58,3106.3994 362.58,3406.7194" fill="none" id="Exception-backto-ReembolsoNoPermitidoException" style="stroke:#FFB000;stroke-width:1;"/><polygon fill="none" points="145.52,2173.0994,163.52,2179.0994,163.52,2167.0994,145.52,2173.0994" style="stroke:#FFB000;stroke-width:1;"/></g><!--reverse link Exception to VenueNoDisponibleException--><g class="link" data-entity-1="Exception" data-entity-2="VenueNoDisponibleException" data-source-line="70" data-uid="lnk21" id="link_Exception_VenueNoDisponibleException"><path codeLine="70" d="M78.58,2207.1994 C78.58,2395.7594 78.58,3175.6094 78.58,3175.6094 C78.58,3175.6094 237.06,3175.6094 377.12,3175.6094" fill="none" id="Exception-backto-VenueNoDisponibleException" style="stroke:#FFB000;stroke-width:1;"/><polygon fill="none" points="78.58,2189.1994,72.58,2207.1994,84.58,2207.1994,78.58,2189.1994" style="stroke:#FFB000;stroke-width:1;"/></g><!--reverse link Exception to UsuarioNoEncontradoException--><g class="link" data-entity-1="Exception" data-entity-2="UsuarioNoEncontradoException" data-source-line="71" data-uid="lnk22" id="link_Exception_UsuarioNoEncontradoException"><path codeLine="71" d="M101.58,2207.0594 C101.58,2358.8394 101.58,2878.6094 101.58,2878.6094 C101.58,2878.6094 262.03,2878.6094 398.5,2878.6094" fill="none" id="Exception-backto-UsuarioNoEncontradoException" style="stroke:#FFB000;stroke-width:1;"/><polygon fill="none" points="101.58,2189.0594,95.58,2207.0594,107.58,2207.0594,101.58,2189.0594" style="stroke:#FFB000;stroke-width:1;"/></g><!--reverse link Exception to SaldoInsuficienteException--><g class="link" data-entity-1="Exception" data-entity-2="SaldoInsuficienteException" data-source-line="72" data-uid="lnk23" id="link_Exception_SaldoInsuficienteException"><path codeLine="72" d="M163.46,2157.4394 C254.59,2157.4394 388.58,2157.4394 388.58,2157.4394 C388.58,2157.4394 388.58,2365.1094 388.58,2489.8294" fill="none" id="Exception-backto-SaldoInsuficienteException" style="stroke:#FFB000;stroke-width:1;"/><polygon fill="none" points="145.46,2157.4394,163.46,2163.4394,163.46,2151.4394,145.46,2157.4394" style="stroke:#FFB000;stroke-width:1;"/></g><!--reverse link Exception to TiqueteVencidoFecha--><g class="link" data-entity-1="Exception" data-entity-2="TiqueteVencidoFecha" data-source-line="73" data-uid="lnk24" id="link_Exception_TiqueteVencidoFecha"><path codeLine="73" d="M123.58,2207.0194 C123.58,2246.8694 123.58,2284.6094 123.58,2284.6094 C123.58,2284.6094 269.31,2284.6094 397.39,2284.6094" fill="none" id="Exception-backto-TiqueteVencidoFecha" style="stroke:#FFB000;stroke-width:1;"/><polygon fill="none" points="123.58,2189.0194,117.58,2207.0194,129.58,2207.0194,123.58,2189.0194" style="stroke:#FFB000;stroke-width:1;"/></g><!--reverse link Exception to LocalidadNoExisteException--><g class="link" data-entity-1="Exception" data-entity-2="LocalidadNoExisteException" data-source-line="74" data-uid="lnk25" id="link_Exception_LocalidadNoExisteException"><path codeLine="74" d="M163.29,2141.7794 C250.03,2141.7794 372.58,2141.7794 372.58,2141.7794 C372.58,2141.7794 372.58,2110.7294 372.58,2079.1994" fill="none" id="Exception-backto-LocalidadNoExisteException" style="stroke:#FFB000;stroke-width:1;"/><polygon fill="none" points="145.29,2141.7794,163.29,2147.7794,163.29,2135.7794,145.29,2141.7794" style="stroke:#FFB000;stroke-width:1;"/></g><!--reverse link Exception to CapacidadVenueExcedidaException--><g class="link" data-entity-1="Exception" data-entity-2="CapacidadVenueExcedidaException" data-source-line="75" data-uid="lnk26" id="link_Exception_CapacidadVenueExcedidaException"><path codeLine="75" d="M123.58,2092.2194 C123.58,1990.0694 123.58,1742.6094 123.58,1742.6094 C123.58,1742.6094 253.99,1742.6094 376.51,1742.6094" fill="none" id="Exception-backto-CapacidadVenueExcedidaException" style="stroke:#FFB000;stroke-width:1;"/><polygon fill="none" points="123.58,2110.2194,129.58,2092.2194,117.58,2092.2194,123.58,2110.2194" style="stroke:#FFB000;stroke-width:1;"/></g><!--reverse link Exception to OrganizadorNoTieneEventosException--><g class="link" data-entity-1="Exception" data-entity-2="OrganizadorNoTieneEventosException" data-source-line="76" data-uid="lnk27" id="link_Exception_OrganizadorNoTieneEventosException"><path codeLine="76" d="M163.38,2126.1194 C238.34,2126.1194 331.58,2126.1194 331.58,2126.1194 C331.58,2126.1194 331.58,1703.3394 331.58,1537.3594" fill="none" id="Exception-backto-OrganizadorNoTieneEventosException" style="stroke:#FFB000;stroke-width:1;"/><polygon fill="none" points="145.38,2126.1194,163.38,2132.1194,163.38,2120.1194,145.38,2126.1194" style="stroke:#FFB000;stroke-width:1;"/></g><!--reverse link Exception to TiqueteNoEncontradoException--><g class="link" data-entity-1="Exception" data-entity-2="TiqueteNoEncontradoException" data-source-line="77" data-uid="lnk28" id="link_Exception_TiqueteNoEncontradoException"><path codeLine="77" d="M101.58,2092.0394 C101.58,1912.4394 101.58,1200.6094 101.58,1200.6094 C101.58,1200.6094 259.04,1200.6094 394.67,1200.6094" fill="none" id="Exception-backto-TiqueteNoEncontradoException" style="stroke:#FFB000;stroke-width:1;"/><polygon fill="none" points="101.58,2110.0394,107.58,2092.0394,95.58,2092.0394,101.58,2110.0394" style="stroke:#FFB000;stroke-width:1;"/></g><!--reverse link Exception to CantidadTiquetesExcedidaException--><g class="link" data-entity-1="Exception" data-entity-2="CantidadTiquetesExcedidaException" data-source-line="78" data-uid="lnk29" id="link_Exception_CantidadTiquetesExcedidaException"><path codeLine="78" d="M78.58,2092.2594 C78.58,1880.4694 78.58,903.6094 78.58,903.6094 C78.58,903.6094 230.74,903.6094 368.64,903.6094" fill="none" id="Exception-backto-CantidadTiquetesExcedidaException" style="stroke:#FFB000;stroke-width:1;"/><polygon fill="none" points="78.58,2110.2594,84.58,2092.2594,72.58,2092.2594,78.58,2110.2594" style="stroke:#FFB000;stroke-width:1;"/></g><!--reverse link Exception to TiqueteNoTransferibleException--><g class="link" data-entity-1="Exception" data-entity-2="TiqueteNoTransferibleException" data-source-line="79" data-uid="lnk30" id="link_Exception_TiqueteNoTransferibleException"><path codeLine="79" d="M56.58,2092.3094 C56.58,1851.7694 56.58,606.6094 56.58,606.6094 C56.58,606.6094 216.17,606.6094 360.34,606.6094" fill="none" id="Exception-backto-TiqueteNoTransferibleException" style="stroke:#FFB000;stroke-width:1;"/><polygon fill="none" points="56.58,2110.3094,62.58,2092.3094,50.58,2092.3094,56.58,2110.3094" style="stroke:#FFB000;stroke-width:1;"/></g><!--reverse link Exception to PasswordIncorrectoException--><g class="link" data-entity-1="Exception" data-entity-2="PasswordIncorrectoException" data-source-line="80" data-uid="lnk31" id="link_Exception_PasswordIncorrectoException"><path codeLine="80" d="M34.58,2092.2094 C34.58,1823.0094 34.58,283.6094 34.58,283.6094 C34.58,283.6094 201.38,283.6094 351.73,283.6094" fill="none" id="Exception-backto-PasswordIncorrectoException" style="stroke:#FFB000;stroke-width:1;"/><polygon fill="none" points="34.58,2110.2094,40.58,2092.2094,28.58,2092.2094,34.58,2110.2094" style="stroke:#FFB000;stroke-width:1;"/></g><!--SRC=[bPRTJjim5CVlynGUDwIQG21DqrHj5wZBf4vRgTPkceIuSED3QaXyWksm0aFQG-mrzXHxapt9d9R68NMSm4M5xDy_Fj_sFddd_WlsoPHU5w1XIA8Lv3570Sgijl6QwnIs6X9zZwQZyUaacf5_ltwJZo2fl2x-_g4a_8mCKYGC2CEC2uw3u8LUGWOablg0PWkGGGeNccWaaYTBJHYN46jZGA2kkCYff1b9kG1zcmD1gPTOsyXfV4KJcEbROqwfeo99eGO8Sxw2d1o_EggjIYgkrgklZvvyZ34k4dByfhOOfrIf4wqbNnGQnZ6A6Ry3SXG4ZsUJFHknFN8Va8s4dEOc3ENo14yAZPBVKKQZLGnvwHmvExkaDtHejOT-mVdv-jk4lFHpuQ0NbO5GzDAaUsOy4qafUgXC7r7Z6sUKVSAOfkK_fP1nl_qzLDQ97d2e-Rgyr91mePzQ-0KWMs2gS89Ja1dNdA7FDYzlhV9YOQ4AAZaEIOe9Z-dXAEKWD0pwQBtn_WQYW0c-vof7mHSf-5nfXwqVxKnuKsvLBgp1GQV8Q_tNJLWc60dJ7LfIVofykFN0HuMbyS9jp8oc3CT25HSyNcV7PqexR0rfPrnHyGiy1MGzc6-gtcJ3z0T-W7X97QOxA6kpOtFRJDNPZypJiwjcD75VSUMFNZjiBMbdGe7PGa85T4oYTN4-Qmgv5Ou9v0R3UBll63-dCg6YdAWe9pWtIOJ8z9L6vPtldQBQZEzaGxH8bTIQp5bKVNlKX- -KcRj7EPjlAsudV2CgT1dPHqBrosk7ffxP3ZJCwAeogv_0Dm2hECpDkq9TWEmQuNw18y1EhbzBJytF3vHiR78aonUID_4UsfhbWJhkI9_IFKsVSzPEzJy4mIO8bIQmph_zUN3GyKXhqZqUBKs9zrNGXDjlu2RfknwRRFk5r2GTzqOJQH_ehS5opzUTJ7HEl1PhUyMWiyDRF-vilIRjgTB_]--></g></svg>