<svg xmlns="http://www.w3.org/2000/svg" xmlns:xlink="http://www.w3.org/1999/xlink" contentStyleType="text/css" data-diagram-type="CLASS" height="1413px" preserveAspectRatio="none" style="width:2602px;height:1413px;background:#282828;" version="1.1" viewBox="0 0 2602 1413" width="2602px" zoomAndPan="magnify"><title>Paquete MARKETPLACE &#8212; Ofertas y reventa (modelo de dominio)</title><defs/><g><rect fill="#282828" height="1413" style="stroke:none;stroke-width:1;" width="2602" x="0" y="0"/><g class="title" data-source-line="4"><text fill="#FFB000" font-family="Verdana" font-size="22" font-weight="bold" lengthAdjust="spacing" textLength="811.9805" x="890.8198" y="53.4209">Paquete MARKETPLACE &#8212; Ofertas y reventa (modelo de dominio)</text></g><!--cluster Marketplace--><g class="cluster" data-entity="Marketplace" data-source-line="14" data-uid="ent0002" id="cluster_Marketplace"><rect fill="#282828" height="1273" rx="2.5" ry="2.5" style="stroke:#FFB000;stroke-width:1;" width="2307.7" x="12" y="94.6094"/><text fill="#FFB000" font-family="Verdana" font-size="14" font-weight="bold" lengthAdjust="spacing" textLength="97.8428" x="1116.9286" y="127.6045">Marketplace</text></g><!--cluster logica--><g class="cluster" data-entity="logica" data-source-line="67" data-uid="ent0011" id="cluster_logica"><rect fill="#282828" height="383" rx="2.5" ry="2.5" style="stroke:#FFB000;stroke-width:1;" width="148.92" x="2447.7" y="1024.6094"/><text fill="#FFB000" font-family="Verdana" font-size="14" font-weight="bold" lengthAdjust="spacing" textLength="46.9834" x="2498.6683" y="1057.6045">logica</text></g><!--class MarketPlace--><g class="entity" data-entity="MarketPlace" data-source-line="15" data-uid="ent0003" id="entity_MarketPlace"><a href="java:Marketplace.MarketPlace" target="_top" title="java:Marketplace.MarketPlace" xlink:actuate="onRequest" xlink:href="java:Marketplace.MarketPlace" xlink:show="new" xlink:title="java:Marketplace.MarketPlace" xlink:type="simple"><rect fill="#282828" height="496.6719" rx="2.5" ry="2.5" style="stroke:#FFB000;stroke-width:1;" width="456.8779" x="28" y="445.2694"/><ellipse cx="191.7661" cy="476.4178" fill="#FFB000" rx="9" ry="9" style="stroke:#FFB000;stroke-width:1;"/><path d="M194.7349,482.0584 Q194.1567,482.3553 193.5161,482.4959 Q192.8755,482.6522 192.1724,482.6522 Q189.6724,482.6522 188.3442,481.0116 Q187.0317,479.3553 187.0317,476.2303 Q187.0317,473.1053 188.3442,471.4491 Q189.6724,469.7928 192.1724,469.7928 Q192.8755,469.7928 193.5161,469.9491 Q194.1724,470.1053 194.7349,470.4022 L194.7349,473.1209 Q194.1099,472.5428 193.5161,472.2772 Q192.9224,471.9959 192.2974,471.9959 Q190.9536,471.9959 190.2661,473.0741 Q189.5786,474.1366 189.5786,476.2303 Q189.5786,478.3241 190.2661,479.4022 Q190.9536,480.4647 192.2974,480.4647 Q192.9224,480.4647 193.5161,480.1991 Q194.1099,479.9178 194.7349,479.3397 L194.7349,482.0584 Z " fill="#FFB000"/><text fill="#FFB000" font-family="Verdana" font-size="14" lengthAdjust="spacing" textLength="85.8457" x="227.2661" y="481.2645">MarketPlace</text><line style="stroke:#FFB000;stroke-width:1;" x1="29" x2="483.8779" y1="507.5662" y2="507.5662"/><line style="stroke:#FFB000;stroke-width:1;" x1="29" x2="483.8779" y1="515.5663" y2="515.5663"/><text fill="#FFB000" font-family="Verdana" font-size="14" lengthAdjust="spacing" textLength="108.5" x="52" y="550.5614">+MarketPlace()</text><text fill="#FFB000" font-family="Verdana" font-size="14" lengthAdjust="spacing" textLength="257.7764" x="52" y="602.8582">+publicarOferta(oferta: Oferta): void</text><text fill="#FFB000" font-family="Verdana" font-size="14" lengthAdjust="spacing" textLength="408.8779" x="52" y="655.1551">+eliminarOferta(oferta: Oferta, autor: logica.Cliente): void</text><text fill="#FFB000" font-family="Verdana" font-size="14" lengthAdjust="spacing" textLength="354.8809" x="52" y="707.452">+publicarContraOferta(contra: ContraOferta): void</text><text fill="#FFB000" font-family="Verdana" font-size="14" lengthAdjust="spacing" textLength="352.0234" x="52" y="759.7489">+aceptarContraOferta(contra: ContraOferta): void</text><text fill="#FFB000" font-family="Verdana" font-size="14" lengthAdjust="spacing" textLength="359.625" x="52" y="812.0457">+rechazarContraOferta(contra: ContraOferta): void</text><text fill="#FFB000" font-family="Verdana" font-size="14" lengthAdjust="spacing" textLength="259.1846" x="52" y="864.3426">+getOfertas(): java.util.List&lt;Oferta&gt;</text><text fill="#FFB000" font-family="Verdana" font-size="14" lengthAdjust="spacing" textLength="163.4951" x="52" y="916.6395">+getLog(): LogReventa</text></a></g><!--class Oferta--><g class="entity" data-entity="Oferta" data-source-line="26" data-uid="ent0004" id="entity_Oferta"><a href="java:Marketplace.Oferta" target="_top" title="java:Marketplace.Oferta" xlink:actuate="onRequest" xlink:href="java:Marketplace.Oferta" xlink:show="new" xlink:title="java:Marketplace.Oferta" xlink:type="simple"><rect fill="#282828" height="758.1563" rx="2.5" ry="2.5" style="stroke:#FFB000;stroke-width:1;" width="701.6729" x="644.88" y="593.5294"/><ellipse cx="951.7736" cy="624.6778" fill="#FFB000" rx="9" ry="9" style="stroke:#FFB000;stroke-width:1;"/><path d="M954.7423,630.3184 Q954.1642,630.6153 953.5236,630.7559 Q952.8829,630.9122 952.1798,630.9122 Q949.6798,630.9122 948.3517,629.2716 Q947.0392,627.6153 947.0392,624.4903 Q947.0392,621.3653 948.3517,619.7091 Q949.6798,618.0528 952.1798,618.0528 Q952.8829,618.0528 953.5236,618.2091 Q954.1798,618.3653 954.7423,618.6622 L954.7423,621.3809 Q954.1173,620.8028 953.5236,620.5372 Q952.9298,620.2559 952.3048,620.2559 Q950.9611,620.2559 950.2736,621.3341 Q949.5861,622.3966 949.5861,624.4903 Q949.5861,626.5841 950.2736,627.6622 Q950.9611,628.7247 952.3048,628.7247 Q952.9298,628.7247 953.5236,628.4591 Q954.1173,628.1778 954.7423,627.5997 L954.7423,630.3184 Z " fill="#FFB000"/><text fill="#FFB000" font-family="Verdana" font-size="14" lengthAdjust="spacing" textLength="44.3857" x="987.2736" y="629.5245">Oferta</text><line style="stroke:#FFB000;stroke-width:1;" x1="645.88" x2="1345.5529" y1="655.8263" y2="655.8263"/><line style="stroke:#FFB000;stroke-width:1;" x1="645.88" x2="1345.5529" y1="663.8263" y2="663.8263"/><text fill="#FFB000" font-family="Verdana" font-size="14" lengthAdjust="spacing" textLength="653.6729" x="668.88" y="698.8214">+Oferta(tiquete: logica.Tiquete, vendedor: logica.Cliente, descripcion: String, precio: double)</text><text fill="#FFB000" font-family="Verdana" font-size="14" lengthAdjust="spacing" textLength="353.4795" x="668.88" y="751.1182">+agregarContraOferta(contra: ContraOferta): void</text><text fill="#FFB000" font-family="Verdana" font-size="14" lengthAdjust="spacing" textLength="351.8936" x="668.88" y="803.4151">+removeContraOferta(contra: ContraOferta): void</text><text fill="#FFB000" font-family="Verdana" font-size="14" lengthAdjust="spacing" textLength="261.3037" x="668.88" y="855.712">+setVendida(vendida: boolean): void</text><text fill="#FFB000" font-family="Verdana" font-size="14" lengthAdjust="spacing" textLength="178.5342" x="668.88" y="908.0089">+getDescripcion(): String</text><text fill="#FFB000" font-family="Verdana" font-size="14" lengthAdjust="spacing" textLength="145.4893" x="668.88" y="960.3057">+getPrecio(): double</text><text fill="#FFB000" font-family="Verdana" font-size="14" lengthAdjust="spacing" textLength="156.2832" x="668.88" y="1012.6026">+isVendida(): boolean</text><text fill="#FFB000" font-family="Verdana" font-size="14" lengthAdjust="spacing" textLength="226.0986" x="668.88" y="1064.8995">+setPrecio(precio: double): void</text><text fill="#FFB000" font-family="Verdana" font-size="14" lengthAdjust="spacing" textLength="295.7842" x="668.88" y="1117.1964">+setDescripcion(descripcion: String): void</text><text fill="#FFB000" font-family="Verdana" font-size="14" lengthAdjust="spacing" textLength="217.6836" x="668.88" y="1169.4932">+getVendedor(): logica.Cliente</text><text fill="#FFB000" font-family="Verdana" font-size="14" lengthAdjust="spacing" textLength="206.6025" x="668.88" y="1221.7901">+getTiquete(): logica.Tiquete</text><text fill="#FFB000" font-family="Verdana" font-size="14" lengthAdjust="spacing" textLength="353.2607" x="668.88" y="1274.087">+getContraOfertas(): java.util.List&lt;ContraOferta&gt;</text><text fill="#FFB000" font-family="Verdana" font-size="14" lengthAdjust="spacing" textLength="129.4385" x="668.88" y="1326.3839">+toString(): String</text></a></g><!--class ContraOferta--><g class="entity" data-entity="ContraOferta" data-source-line="42" data-uid="ent0005" id="entity_ContraOferta"><a href="java:Marketplace.ContraOferta" target="_top" title="java:Marketplace.ContraOferta" xlink:actuate="onRequest" xlink:href="java:Marketplace.ContraOferta" xlink:show="new" xlink:title="java:Marketplace.ContraOferta" xlink:type="simple"><rect fill="#282828" height="601.2656" rx="2.5" ry="2.5" style="stroke:#FFB000;stroke-width:1;" width="797.1504" x="1506.55" y="321.9794"/><ellipse cx="1837.6633" cy="353.1278" fill="#FFB000" rx="9" ry="9" style="stroke:#FFB000;stroke-width:1;"/><path d="M1840.632,358.7684 Q1840.0539,359.0653 1839.4133,359.2059 Q1838.7727,359.3622 1838.0695,359.3622 Q1835.5695,359.3622 1834.2414,357.7216 Q1832.9289,356.0653 1832.9289,352.9403 Q1832.9289,349.8153 1834.2414,348.1591 Q1835.5695,346.5028 1838.0695,346.5028 Q1838.7727,346.5028 1839.4133,346.6591 Q1840.0695,346.8153 1840.632,347.1122 L1840.632,349.8309 Q1840.007,349.2528 1839.4133,348.9872 Q1838.8195,348.7059 1838.1945,348.7059 Q1836.8508,348.7059 1836.1633,349.7841 Q1835.4758,350.8466 1835.4758,352.9403 Q1835.4758,355.0341 1836.1633,356.1122 Q1836.8508,357.1747 1838.1945,357.1747 Q1838.8195,357.1747 1839.4133,356.9091 Q1840.007,356.6278 1840.632,356.0497 L1840.632,358.7684 Z " fill="#FFB000"/><text fill="#FFB000" font-family="Verdana" font-size="14" lengthAdjust="spacing" textLength="91.4238" x="1873.1633" y="357.9745">ContraOferta</text><line style="stroke:#FFB000;stroke-width:1;" x1="1507.55" x2="2302.7004" y1="384.2762" y2="384.2762"/><line style="stroke:#FFB000;stroke-width:1;" x1="1507.55" x2="2302.7004" y1="392.2762" y2="392.2762"/><text fill="#FFB000" font-family="Verdana" font-size="14" lengthAdjust="spacing" textLength="749.1504" x="1530.55" y="427.2714">+ContraOferta(comprador: logica.Cliente, ofertaOriginal: Oferta, nuevoPrecio: double, usarSaldo: boolean)</text><text fill="#FFB000" font-family="Verdana" font-size="14" lengthAdjust="spacing" textLength="115.0488" x="1530.55" y="479.5682">+aceptar(): void</text><text fill="#FFB000" font-family="Verdana" font-size="14" lengthAdjust="spacing" textLength="122.6504" x="1530.55" y="531.8651">+rechazar(): void</text><text fill="#FFB000" font-family="Verdana" font-size="14" lengthAdjust="spacing" textLength="175" x="1530.55" y="584.162">+getComprador(): String</text><text fill="#FFB000" font-family="Verdana" font-size="14" lengthAdjust="spacing" textLength="190.2988" x="1530.55" y="636.4589">+getNuevoPrecio(): double</text><text fill="#FFB000" font-family="Verdana" font-size="14" lengthAdjust="spacing" textLength="165.2861" x="1530.55" y="688.7557">+isAceptada(): boolean</text><text fill="#FFB000" font-family="Verdana" font-size="14" lengthAdjust="spacing" textLength="178.5342" x="1530.55" y="741.0526">+getDescripcion(): String</text><text fill="#FFB000" font-family="Verdana" font-size="14" lengthAdjust="spacing" textLength="129.4385" x="1530.55" y="793.3495">+toString(): String</text><text fill="#FFB000" font-family="Verdana" font-size="14" lengthAdjust="spacing" textLength="198.3652" x="1530.55" y="845.6464">+getOfertaOriginal(): Oferta</text><text fill="#FFB000" font-family="Verdana" font-size="14" lengthAdjust="spacing" textLength="217.6836" x="1530.55" y="897.9432">+getVendedor(): logica.Cliente</text></a></g><!--class LogReventa--><g class="entity" data-entity="LogReventa" data-source-line="55" data-uid="ent0006" id="entity_LogReventa"><a href="java:Marketplace.LogReventa" target="_top" title="java:Marketplace.LogReventa" xlink:actuate="onRequest" xlink:href="java:Marketplace.LogReventa" xlink:show="new" xlink:title="java:Marketplace.LogReventa" xlink:type="simple"><rect fill="#282828" height="287.4844" rx="2.5" ry="2.5" style="stroke:#FFB000;stroke-width:1;" width="349.1367" x="821.15" y="165.8694"/><ellipse cx="932.2521" cy="197.0178" fill="#FFB000" rx="9" ry="9" style="stroke:#FFB000;stroke-width:1;"/><path d="M935.2208,202.6584 Q934.6427,202.9553 934.0021,203.0959 Q933.3614,203.2522 932.6583,203.2522 Q930.1583,203.2522 928.8302,201.6116 Q927.5177,199.9553 927.5177,196.8303 Q927.5177,193.7053 928.8302,192.0491 Q930.1583,190.3928 932.6583,190.3928 Q933.3614,190.3928 934.0021,190.5491 Q934.6583,190.7053 935.2208,191.0022 L935.2208,193.7209 Q934.5958,193.1428 934.0021,192.8772 Q933.4083,192.5959 932.7833,192.5959 Q931.4396,192.5959 930.7521,193.6741 Q930.0646,194.7366 930.0646,196.8303 Q930.0646,198.9241 930.7521,200.0022 Q931.4396,201.0647 932.7833,201.0647 Q933.4083,201.0647 934.0021,200.7991 Q934.5958,200.5178 935.2208,199.9397 L935.2208,202.6584 Z " fill="#FFB000"/><text fill="#FFB000" font-family="Verdana" font-size="14" lengthAdjust="spacing" textLength="83.4326" x="967.7521" y="201.8645">LogReventa</text><line style="stroke:#FFB000;stroke-width:1;" x1="822.15" x2="1169.2867" y1="228.1663" y2="228.1663"/><line style="stroke:#FFB000;stroke-width:1;" x1="822.15" x2="1169.2867" y1="236.1663" y2="236.1663"/><text fill="#FFB000" font-family="Verdana" font-size="14" lengthAdjust="spacing" textLength="106.0869" x="845.15" y="271.1614">+LogReventa()</text><text fill="#FFB000" font-family="Verdana" font-size="14" lengthAdjust="spacing" textLength="301.1367" x="845.15" y="323.4582">+registrarEvento(descripcion: String): void</text><text fill="#FFB000" font-family="Verdana" font-size="14" lengthAdjust="spacing" textLength="260.8662" x="845.15" y="375.7551">+getEventos(): java.util.List&lt;String&gt;</text><text fill="#FFB000" font-family="Verdana" font-size="14" lengthAdjust="spacing" textLength="141.7773" x="845.15" y="428.052">+mostrarLog(): void</text></a></g><!--class Tiquete--><g class="entity" data-entity="Tiquete" data-source-line="67" data-uid="ent0010" id="entity_Tiquete"><rect fill="#282828" height="78.2969" rx="2.5" ry="2.5" style="stroke:#FFB000;stroke-width:1;" width="116.917" x="2463.7" y="1313.4594"/><ellipse cx="2476.7" cy="1344.6078" fill="#FFB000" rx="9" ry="9" style="stroke:#FFB000;stroke-width:1;"/><path d="M2479.6688,1350.2484 Q2479.0906,1350.5453 2478.45,1350.6859 Q2477.8094,1350.8422 2477.1063,1350.8422 Q2474.6063,1350.8422 2473.2781,1349.2016 Q2471.9656,1347.5453 2471.9656,1344.4203 Q2471.9656,1341.2953 2473.2781,1339.6391 Q2474.6063,1337.9828 2477.1063,1337.9828 Q2477.8094,1337.9828 2478.45,1338.1391 Q2479.1063,1338.2953 2479.6688,1338.5922 L2479.6688,1341.3109 Q2479.0438,1340.7328 2478.45,1340.4672 Q2477.8563,1340.1859 2477.2313,1340.1859 Q2475.8875,1340.1859 2475.2,1341.2641 Q2474.5125,1342.3266 2474.5125,1344.4203 Q2474.5125,1346.5141 2475.2,1347.5922 Q2475.8875,1348.6547 2477.2313,1348.6547 Q2477.8563,1348.6547 2478.45,1348.3891 Q2479.0438,1348.1078 2479.6688,1347.5297 L2479.6688,1350.2484 Z " fill="#FFB000"/><text fill="#FFB000" font-family="Verdana" font-size="14" lengthAdjust="spacing" textLength="52.917" x="2506.7" y="1349.4545">Tiquete</text><line style="stroke:#FFB000;stroke-width:1;" x1="2464.7" x2="2579.617" y1="1375.7563" y2="1375.7563"/><line style="stroke:#FFB000;stroke-width:1;" x1="2464.7" x2="2579.617" y1="1383.7563" y2="1383.7563"/></g><!--class Cliente--><g class="entity" data-entity="Cliente" data-source-line="68" data-uid="ent0013" id="entity_Cliente"><rect fill="#282828" height="78.2969" rx="2.5" ry="2.5" style="stroke:#FFB000;stroke-width:1;" width="113.1436" x="2465.59" y="1095.4594"/><ellipse cx="2478.59" cy="1126.6078" fill="#FFB000" rx="9" ry="9" style="stroke:#FFB000;stroke-width:1;"/><path d="M2481.5588,1132.2484 Q2480.9806,1132.5453 2480.34,1132.6859 Q2479.6994,1132.8422 2478.9963,1132.8422 Q2476.4963,1132.8422 2475.1681,1131.2016 Q2473.8556,1129.5453 2473.8556,1126.4203 Q2473.8556,1123.2953 2475.1681,1121.6391 Q2476.4963,1119.9828 2478.9963,1119.9828 Q2479.6994,1119.9828 2480.34,1120.1391 Q2480.9963,1120.2953 2481.5588,1120.5922 L2481.5588,1123.3109 Q2480.9338,1122.7328 2480.34,1122.4672 Q2479.7463,1122.1859 2479.1213,1122.1859 Q2477.7775,1122.1859 2477.09,1123.2641 Q2476.4025,1124.3266 2476.4025,1126.4203 Q2476.4025,1128.5141 2477.09,1129.5922 Q2477.7775,1130.6547 2479.1213,1130.6547 Q2479.7463,1130.6547 2480.34,1130.3891 Q2480.9338,1130.1078 2481.5588,1129.5297 L2481.5588,1132.2484 Z " fill="#FFB000"/><text fill="#FFB000" font-family="Verdana" font-size="14" lengthAdjust="spacing" textLength="49.1436" x="2508.59" y="1131.4545">Cliente</text><line style="stroke:#FFB000;stroke-width:1;" x1="2466.59" x2="2577.7336" y1="1157.7563" y2="1157.7563"/><line style="stroke:#FFB000;stroke-width:1;" x1="2466.59" x2="2577.7336" y1="1165.7563" y2="1165.7563"/></g><!--link MarketPlace to Oferta--><g class="link" data-entity-1="MarketPlace" data-entity-2="Oferta" data-source-line="64" data-uid="lnk7" id="link_MarketPlace_Oferta"><path codeLine="64" d="M485.29,767.7394 C535.75,767.7394 584.33,767.7394 638.38,767.7394" fill="none" id="MarketPlace-to-Oferta" style="stroke:#FFB000;stroke-width:1;"/><polygon fill="#FFB000" points="644.38,767.7394,635.38,763.7394,639.38,767.7394,635.38,771.7394,644.38,767.7394" style="stroke:#FFB000;stroke-width:1;"/><text fill="#FFB000" font-family="Verdana" font-size="13" lengthAdjust="spacing" textLength="45.7095" x="500.84" y="798.8063">ofertas</text><text fill="#FFB000" font-family="Verdana" font-size="13" lengthAdjust="spacing" textLength="6.5" x="612.822" y="794.1642">*</text></g><!--link MarketPlace to LogReventa--><g class="link" data-entity-1="MarketPlace" data-entity-2="LogReventa" data-source-line="65" data-uid="lnk8" id="link_MarketPlace_LogReventa"><path codeLine="65" d="M485.29,449.3094 C593.42,449.3094 714.46,449.3094 814.74,449.3094" fill="none" id="MarketPlace-to-LogReventa" style="stroke:#FFB000;stroke-width:1;"/><polygon fill="#FFB000" points="820.74,449.3094,811.74,445.3094,815.74,449.3094,811.74,453.3094,820.74,449.3094" style="stroke:#FFB000;stroke-width:1;"/><text fill="#FFB000" font-family="Verdana" font-size="13" lengthAdjust="spacing" textLength="19.8174" x="615.01" y="480.3763">log</text><text fill="#FFB000" font-family="Verdana" font-size="13" lengthAdjust="spacing" textLength="8.271" x="787.0508" y="485.8319">1</text></g><!--link Oferta to ContraOferta--><g class="link" data-entity-1="Oferta" data-entity-2="ContraOferta" data-source-line="66" data-uid="lnk9" id="link_Oferta_ContraOferta"><path codeLine="66" d="M1346.99,813.3394 C1399.11,813.3394 1447.15,813.3394 1500.16,813.3394" fill="none" id="Oferta-to-ContraOferta" style="stroke:#FFB000;stroke-width:1;"/><polygon fill="#FFB000" points="1506.16,813.3394,1497.16,809.3394,1501.16,813.3394,1497.16,817.3394,1506.16,813.3394" style="stroke:#FFB000;stroke-width:1;"/><text fill="#FFB000" font-family="Verdana" font-size="13" lengthAdjust="spacing" textLength="89.7368" x="1318.57" y="844.4063">contraOfertas</text><text fill="#FFB000" font-family="Verdana" font-size="13" lengthAdjust="spacing" textLength="6.5" x="1473.6345" y="847.7997">*</text></g><!--link ContraOferta to Oferta--><g class="link" data-entity-1="ContraOferta" data-entity-2="Oferta" data-source-line="69" data-uid="lnk15" id="link_ContraOferta_Oferta"><path codeLine="69" d="M1506.24,703.4394 C1453.15,703.4394 1405.03,703.4394 1352.83,703.4394" fill="none" id="ContraOferta-to-Oferta" style="stroke:#FFB000;stroke-width:1;"/><polygon fill="#FFB000" points="1346.83,703.4394,1355.83,707.4394,1351.83,703.4394,1355.83,699.4394,1346.83,703.4394" style="stroke:#FFB000;stroke-width:1;"/><text fill="#FFB000" font-family="Verdana" font-size="13" lengthAdjust="spacing" textLength="89.8066" x="1445.54" y="734.5063">ofertaOriginal</text><text fill="#FFB000" font-family="Verdana" font-size="13" lengthAdjust="spacing" textLength="8.271" x="1372.4116" y="728.5581">1</text></g><!--link Oferta to Tiquete--><g class="link" data-entity-1="Oferta" data-entity-2="Tiquete" data-source-line="67" data-uid="lnk12" id="link_Oferta_Tiquete"><path codeLine="67" d="M1346.87,1332.5694 C1720.35,1332.5694 2275.84,1332.5694 2457.34,1332.5694" fill="none" id="Oferta-to-Tiquete" style="stroke:#FFB000;stroke-width:1;"/><polygon fill="#FFB000" points="2463.34,1332.5694,2454.34,1328.5694,2458.34,1332.5694,2454.34,1336.5694,2463.34,1332.5694" style="stroke:#FFB000;stroke-width:1;"/><text fill="#FFB000" font-family="Verdana" font-size="13" lengthAdjust="spacing" textLength="46.2935" x="1840.1" y="1363.6363">tiquete</text><text fill="#FFB000" font-family="Verdana" font-size="13" lengthAdjust="spacing" textLength="8.271" x="2429.3978" y="1363.1804">1</text></g><!--link Oferta to Cliente--><g class="link" data-entity-1="Oferta" data-entity-2="Cliente" data-source-line="68" data-uid="lnk14" id="link_Oferta_Cliente"><path codeLine="68" d="M1346.87,1134.6094 C1721.67,1134.6094 2279.82,1134.6094 2459.25,1134.6094" fill="none" id="Oferta-to-Cliente" style="stroke:#FFB000;stroke-width:1;"/><polygon fill="#FFB000" points="2465.25,1134.6094,2456.25,1130.6094,2460.25,1134.6094,2456.25,1138.6094,2465.25,1134.6094" style="stroke:#FFB000;stroke-width:1;"/><text fill="#FFB000" font-family="Verdana" font-size="13" lengthAdjust="spacing" textLength="61.731" x="1826.06" y="1165.6763">vendedor</text><text fill="#FFB000" font-family="Verdana" font-size="13" lengthAdjust="spacing" textLength="8.271" x="2431.1262" y="1167.313">1</text></g><!--link ContraOferta to Cliente--><g class="link" data-entity-1="ContraOferta" data-entity-2="Cliente" data-source-line="70" data-uid="lnk16" id="link_ContraOferta_Cliente"><path codeLine="70" d="M2304.04,622.6094 C2423.14,622.6094 2522.62,622.6094 2522.62,622.6094 C2522.62,622.6094 2522.62,969.3894 2522.62,1089.2794" fill="none" id="ContraOferta-to-Cliente" style="stroke:#FFB000;stroke-width:1;"/><polygon fill="#FFB000" points="2522.62,1095.2794,2526.62,1086.2794,2522.62,1090.2794,2518.62,1086.2794,2522.62,1095.2794" style="stroke:#FFB000;stroke-width:1;"/><text fill="#FFB000" font-family="Verdana" font-size="13" lengthAdjust="spacing" textLength="70.8779" x="2433.62" y="780.7263">comprador</text><text fill="#FFB000" font-family="Verdana" font-size="13" lengthAdjust="spacing" textLength="8.271" x="2494.0111" y="1066.4534">1</text></g><!--SRC=[bLNDJjj04BxxAQQvuBGX0gcgAgj5Yb8ELQ542UA2E6pimTbclUkkDv6WGkf3z0dx91rxr_RQc8fmiJBppSz-yyrm19-7_u8ZMB2VEpGOmINJMpIvO36I-QK0mur0gAFWShRyTdwzk9ZDp-7lxpzmTO_Qi08UGECUfM4GPYf1eI11I5J69LVZu8tPO8OGQtFCiZNgGE2z0QD0ytHZ8E4QOyEL38ejbpdJB0F19Pg7745fir6U8sVnbgMuCW_KLnd7P2hG0qYgNs0Ef-zFFAjcSbjPFvnqaYK9bocSVlICiM15CJD6y_NEuDTOoHL_H3W90bSRHXvt8_WLW8rnb2vACzpU_c1x5dd8gUU-kwl20Dvvnd1iJVbkBNZCj2KtLDKdSboF8zWhdbWa2auKlu2S0DiPfICGAgLqqxdWD27i9AXBpPKqchaqSVKZ0j_OYQ9UStDe4CrgmnuFZKhHE8s5P2yfdUuC5zCBNfXFrdFM82zKMgBeixHg9CzJq8p7meScOptjK5ntXhjTSGnUszyJeEG99i-vdP3iYrZpF2OrHx0Y3Sbq0ZczdQk85eBeHZTbbcfC3oSnKtiyBAP0SqFzyeI5U_kDOAsKG2RxL7zfko-9jFqttaNrZD9X7s8TlAYpZvkyJM4NqYEWrvrVTO2_VfCtZlooNfV-1k86vI6SfK7uR0r9o_SxWHbb- -amuydB3naIcUzlfTQRPPPhDYWikzjNT35fuKMxutA7UxNey3k1NS7qYeb4jPFkR6uuk9bXd-bvtSw06BwtTPyhObQL6P34_pKsoB1_1Ehdbm1hUPqgl2crns5eHgstdL1hgmyqBIvfH3DzNfhLQqHhaKDAitYdiKnLUTqXSncU0kh_29P8BL89B0B_7ytnyHcCtexgwnOvfGo0JaV-wokQ0XTL9-beE8BOtv8Ebd9rDulGxbo-W7FJ85nzFODEjHhUUqSzyc7mizpD1lq3]--></g></svg>